<svg width="1004" height="591" viewBox="0 0 1004 591" fill="none" xmlns="http://www.w3.org/2000/svg">
    <rect width="1004" height="591" fill="black" />
    <path
        d="M460.637 216.507L464.421 221.359C464.421 221.359 477.898 224.94 477.78 225.633C477.662 226.326 478.844 241.113 478.844 241.113L483.337 221.821L460.637 216.507Z"
        fill="#BFA976" />
    <path
        d="M502.725 221.821L507.217 241.113C507.217 241.113 508.399 226.326 508.281 225.633C508.163 224.94 521.64 221.359 521.64 221.359L525.424 216.507L502.725 221.821Z"
        fill="#BFA976" />
    <path
        d="M546.469 208.344L533.228 196.637L554.982 195.097L541.11 186.779L527.08 188.627C527.08 188.627 534.331 182.774 534.804 182.465C535.277 182.158 516.361 188.165 516.361 188.165L525.189 175.996C525.189 175.996 502.962 188.934 502.49 189.089C502.017 189.243 515.101 169.68 515.101 169.68L493.033 184.964L470.964 169.68C470.964 169.68 484.048 189.242 483.575 189.089C483.103 188.934 460.876 175.996 460.876 175.996L469.704 188.165C469.704 188.165 450.787 182.158 451.261 182.465C451.734 182.773 458.985 188.627 458.985 188.627L444.955 186.779L431.083 195.097L452.837 196.637L439.596 208.344L448.739 205.417L433.605 231.756L444.168 224.671L435.971 246.081C435.971 246.081 439.755 266.875 439.911 266.259C440.069 265.642 445.901 243.463 445.901 243.463L447.477 278.427L451.576 261.023L456.463 282.124L464.66 300.454L464.974 284.435L470.649 308.156C470.649 308.156 477.901 317.551 477.586 316.472C477.271 315.394 476.009 299.53 476.009 299.53L482.788 316.165L493.034 325.407L503.28 316.165L510.058 299.53C510.058 299.53 508.798 315.395 508.482 316.472C508.167 317.551 515.419 308.156 515.419 308.156L521.093 284.435L521.408 300.454L529.605 282.124L534.492 261.023L538.591 278.427L540.167 243.463C540.167 243.463 546 265.642 546.157 266.259C546.313 266.875 550.097 246.081 550.097 246.081L541.9 224.671L552.462 231.756L537.329 205.417L546.469 208.344ZM503.908 292.443L505.17 287.515L505.801 282.432L498.391 292.136L493.031 286.393L487.671 292.136L480.262 282.432L480.892 287.515L482.153 292.443L474.743 285.82L477.424 274.73L484.027 270.859C489.568 267.61 496.492 267.61 502.032 270.859L508.636 274.73L511.316 285.82L503.908 292.443ZM526.844 234.99L532.519 230.946L526.135 245.733L515.021 242.383L520.578 250.122L511.001 243.653L527.198 260.404L512.656 271.263L493.977 263.06V257.168L497.406 250.7L505.326 248.967L500.361 245.963L497.404 247.118H493.03H488.655L485.699 245.963L480.733 248.967L488.655 250.7L492.084 257.168V263.06L473.405 271.263L458.862 260.404L475.06 243.653L465.483 250.122L471.04 242.383L459.926 245.733L453.542 230.946L459.217 234.99L451.533 222.514L452.242 214.89L454.724 219.049L462.172 204.378L462.408 207.728L471.04 197.909L466.665 190.747L476.005 197.331L473.168 191.094L482.627 198.602L479.671 192.364L493.03 200.141L506.389 192.364L503.432 198.602L512.891 191.094L510.053 197.331L519.393 190.747L515.018 197.909L523.65 207.728L523.886 204.378L531.334 219.049L533.816 214.89L534.525 222.514L526.844 234.99Z"
        fill="#BFA976" />
    <path
        d="M587.06 238.225L578.192 223.669L572.636 208.189L584.34 213.503C584.34 213.503 562.826 189.264 562.24 189.02C562.707 189.197 573.109 192.479 573.109 192.479L550.646 165.447L539.887 160.942H556.084L536.34 151.122L529.956 153.086L513.758 145L493.03 156.313L472.302 145L456.104 153.086L449.72 151.122L429.976 160.942H446.173L435.414 165.447L412.951 192.479C412.951 192.479 423.353 189.197 423.82 189.02C423.235 189.265 401.72 213.503 401.72 213.503L413.424 208.189L407.868 223.669L399 238.225L411.059 232.911L402.191 247.236L403.255 261.446C403.255 261.446 410.939 251.857 410.939 252.435C410.939 253.012 410.939 274.037 410.939 274.037L427.136 301.762L427.373 281.892L437.304 312.39L454.801 325.79L450.072 310.772L464.733 331.334L481.521 340.346L481.048 326.713L493.029 347.609L505.009 326.713L504.536 340.346L521.324 331.334L535.985 310.772L531.256 325.79L548.753 312.39L558.684 281.892L558.921 301.762L575.118 274.037C575.118 274.037 575.118 253.012 575.118 252.435C575.118 251.857 582.802 261.446 582.802 261.446L583.866 247.236L574.998 232.911L587.06 238.225ZM569.799 266.874L563.651 281.892L552.538 250.932L551.829 293.444L542.134 313.083L544.736 274.268L539.534 298.989L530.786 309.155L532.913 285.589L518.016 326.715C518.016 326.715 507.679 334.062 507.382 334.794C507.692 334.006 515.889 311.929 515.889 311.929L493.031 334.478L470.174 311.929C470.174 311.929 478.369 334.006 478.681 334.794C478.384 334.062 468.046 326.715 468.046 326.715L453.149 285.589L455.277 309.155L446.529 298.989L441.327 274.268L443.929 313.083L434.234 293.444L433.525 250.932L422.411 281.892L416.264 266.874L435.179 219.279L411.062 243.77L435.416 206.341L410.825 226.673L416.5 209.345L427.85 197.1L419.81 201.029L432.105 186.01L448.42 183.008L434.232 177.232L446.055 169.608L461.188 171.918L444.637 164.063L460.006 162.446L475.849 168.453L455.986 154.822L464.972 156.208L488.853 171.457L478.686 159.674L467.336 150.894L486.488 159.443L493.03 173.167L499.572 159.443L518.724 150.894L507.374 159.674L497.207 171.457L521.088 156.208L530.074 154.822L510.211 168.453L526.054 162.446L541.423 164.063L524.872 171.918L540.005 169.608L551.828 177.232L537.64 183.008L553.955 186.01L566.25 201.029L558.21 197.1L569.56 209.345L575.235 226.673L550.644 206.341L574.998 243.77L550.881 219.279L569.799 266.874Z"
        fill="#BFA976" />
    <path
        d="M236.584 405.317C236.978 405.172 237.402 405.074 237.858 405.022C238.313 404.96 238.753 404.903 239.178 404.851V386.089L236.646 385.608C236.626 385.473 236.62 385.359 236.631 385.266C236.641 385.162 236.646 385.069 236.646 384.986C236.667 384.81 236.688 384.66 236.708 384.536C236.729 384.401 236.755 384.298 236.786 384.225H244.909L245.049 385.53C244.873 385.592 244.65 385.649 244.381 385.701C244.122 385.753 243.848 385.804 243.558 385.856C243.278 385.908 242.994 385.954 242.704 385.996C242.424 386.027 242.181 386.058 241.974 386.089V404.851H249.864L250.966 401.139C251.267 401.118 251.567 401.118 251.867 401.139C252.178 401.16 252.452 401.206 252.69 401.279C252.68 401.641 252.659 402.061 252.628 402.537C252.607 403.003 252.576 403.479 252.535 403.966C252.494 404.442 252.452 404.903 252.411 405.348C252.369 405.783 252.333 406.156 252.302 406.466L251.96 406.715H236.724L236.584 405.317ZM255.02 405.317C255.424 405.172 255.879 405.069 256.387 405.006C256.905 404.934 257.381 404.872 257.816 404.82V386.089L255.269 385.608C255.248 385.556 255.232 385.463 255.222 385.328C255.222 385.183 255.222 385.069 255.222 384.986C255.222 384.841 255.243 384.696 255.284 384.551C255.325 384.407 255.367 384.298 255.408 384.225H263.127L263.283 385.53C262.91 385.665 262.475 385.778 261.978 385.872C261.481 385.965 261.02 386.037 260.596 386.089V404.82L263.485 405.348C263.505 405.4 263.516 405.478 263.516 405.581C263.526 405.674 263.531 405.757 263.531 405.83C263.531 405.975 263.511 406.14 263.469 406.327C263.428 406.513 263.386 406.642 263.345 406.715H255.16L255.02 405.317ZM275.817 407.336C274.605 407.336 273.549 407.191 272.648 406.901C271.747 406.622 270.976 406.223 270.334 405.705C269.692 405.177 269.164 404.556 268.75 403.842C268.346 403.117 268.025 402.319 267.787 401.45C267.549 400.57 267.383 399.638 267.29 398.654C267.207 397.66 267.166 396.635 267.166 395.579V395.548C267.166 394.461 267.238 393.415 267.383 392.41C267.528 391.396 267.756 390.453 268.066 389.584C268.387 388.714 268.802 387.922 269.309 387.207C269.816 386.493 270.427 385.882 271.142 385.375C271.856 384.867 272.684 384.474 273.627 384.194C274.579 383.915 275.656 383.775 276.857 383.775H277.944C279.166 383.775 280.222 383.915 281.113 384.194C282.003 384.463 282.759 384.852 283.38 385.359C284.012 385.856 284.519 386.457 284.903 387.161C285.286 387.865 285.586 388.652 285.803 389.522C286.021 390.381 286.166 391.313 286.238 392.317C286.311 393.311 286.347 394.352 286.347 395.439V395.641C286.347 397.277 286.176 398.804 285.834 400.223C285.493 401.641 284.944 402.879 284.188 403.935C283.443 404.991 282.469 405.824 281.268 406.435C280.077 407.036 278.628 407.336 276.919 407.336H275.817ZM276.686 405.426C278.105 405.426 279.249 405.177 280.119 404.68C280.999 404.183 281.677 403.495 282.153 402.615C282.64 401.734 282.966 400.694 283.132 399.493C283.298 398.281 283.38 396.966 283.38 395.548C283.38 394.699 283.36 393.865 283.318 393.047C283.277 392.229 283.179 391.458 283.023 390.733C282.878 389.998 282.661 389.325 282.371 388.714C282.091 388.103 281.708 387.58 281.222 387.145C280.735 386.7 280.129 386.353 279.404 386.105C278.68 385.856 277.805 385.732 276.78 385.732C275.837 385.732 275.019 385.846 274.326 386.074C273.632 386.291 273.037 386.607 272.54 387.021C272.053 387.435 271.654 387.937 271.344 388.528C271.043 389.118 270.805 389.775 270.629 390.5C270.453 391.225 270.329 392.012 270.256 392.861C270.194 393.71 270.163 394.605 270.163 395.548C270.163 396.355 270.184 397.158 270.225 397.955C270.277 398.752 270.375 399.519 270.52 400.254C270.676 400.979 270.898 401.657 271.188 402.288C271.478 402.92 271.861 403.469 272.338 403.935C272.824 404.401 273.42 404.768 274.124 405.037C274.838 405.296 275.692 405.426 276.686 405.426ZM290.028 405.317C290.432 405.172 290.856 405.069 291.301 405.006C291.757 404.934 292.197 404.872 292.622 404.82V386.089L290.028 385.608C290.007 385.556 289.997 385.473 289.997 385.359C289.997 385.235 289.997 385.136 289.997 385.064C289.997 384.909 290.018 384.748 290.059 384.583C290.1 384.417 290.137 384.298 290.168 384.225H296.008L297.126 386.151H297.141L306.072 401.683L307.33 404.758L307.097 401.325V386.089L304.379 385.608C304.358 385.556 304.348 385.473 304.348 385.359C304.348 385.235 304.348 385.136 304.348 385.064C304.348 384.909 304.369 384.748 304.41 384.583C304.451 384.417 304.493 384.298 304.534 384.225H311.679L311.819 385.561C311.415 385.675 311.032 385.778 310.669 385.872C310.307 385.965 309.908 386.037 309.473 386.089V406.715C309.256 406.798 308.992 406.865 308.681 406.917C308.381 406.979 308.07 407.025 307.749 407.057C307.439 407.088 307.133 407.103 306.833 407.103C306.533 407.103 306.279 407.082 306.072 407.041V406.994L295.899 389.351L294.874 386.788L295.014 389.459V404.82L298.058 405.317C298.078 405.369 298.089 405.452 298.089 405.566C298.099 405.669 298.104 405.757 298.104 405.83C298.104 405.975 298.078 406.14 298.027 406.327C297.985 406.513 297.949 406.642 297.918 406.715H290.168L290.028 405.317ZM314.102 405.177C314.195 405.146 314.329 405.12 314.505 405.1C314.692 405.069 314.889 405.043 315.096 405.022C315.303 404.991 315.505 404.965 315.701 404.944C315.898 404.924 316.064 404.903 316.198 404.882L317.814 386.12H317.627C317.203 386.068 316.789 386.011 316.385 385.949C315.981 385.887 315.567 385.815 315.142 385.732C315.111 385.494 315.106 385.245 315.127 384.986C315.158 384.717 315.21 384.463 315.282 384.225H321.883L328.127 403.531L328.639 401.496L333.811 384.256L339.946 384.225L340.024 385.763C339.599 385.856 339.221 385.929 338.89 385.98C338.569 386.022 338.196 386.068 337.772 386.12L340.272 404.929L342.478 405.208C342.509 405.436 342.514 405.69 342.493 405.969C342.483 406.239 342.452 406.487 342.4 406.715L334.758 406.746L334.696 405.239L337.414 404.96L335.395 389.584L335.1 386.229L334.401 389.615L329.089 406.606C328.603 406.73 328.163 406.798 327.769 406.808C327.386 406.818 326.951 406.787 326.465 406.715L320.671 389.211L319.864 386.198L319.724 389.304L318.435 404.882C318.911 404.924 319.367 404.965 319.802 405.006C320.247 405.048 320.609 405.105 320.889 405.177C320.93 405.457 320.935 405.721 320.904 405.969C320.884 406.207 320.858 406.456 320.827 406.715H314.164L314.102 405.177ZM343.596 405.317C343.668 405.286 343.767 405.25 343.891 405.208C344.026 405.167 344.165 405.131 344.31 405.1C344.466 405.058 344.621 405.022 344.776 404.991C344.932 404.949 345.071 404.913 345.196 404.882L352.247 384.225C352.506 384.184 352.78 384.158 353.07 384.148C353.37 384.127 353.66 384.117 353.94 384.117C354.23 384.117 354.509 384.127 354.779 384.148C355.048 384.168 355.291 384.194 355.508 384.225L362.777 404.96L364.408 405.317L364.253 406.715H356.984L356.844 405.317C357.051 405.265 357.284 405.213 357.543 405.162C357.802 405.11 358.066 405.063 358.335 405.022C358.615 404.98 358.884 404.944 359.143 404.913C359.402 404.882 359.635 404.851 359.842 404.82L357.854 399.011H349.451L347.51 404.82H347.587L350.74 405.317L350.601 406.715H343.767L343.596 405.317ZM357.279 397.21L353.862 387.347L353.583 386.369L353.194 388.046L350.088 397.21H357.279ZM375.839 407.336C374.628 407.336 373.572 407.191 372.671 406.901C371.77 406.622 370.999 406.223 370.357 405.705C369.715 405.177 369.187 404.556 368.772 403.842C368.369 403.117 368.048 402.319 367.809 401.45C367.571 400.57 367.406 399.638 367.312 398.654C367.23 397.66 367.188 396.635 367.188 395.579V395.548C367.188 394.461 367.261 393.415 367.406 392.41C367.551 391.396 367.778 390.453 368.089 389.584C368.41 388.714 368.824 387.922 369.331 387.207C369.839 386.493 370.45 385.882 371.164 385.375C371.879 384.867 372.707 384.474 373.649 384.194C374.602 383.915 375.679 383.775 376.88 383.775H377.967C379.189 383.775 380.245 383.915 381.135 384.194C382.026 384.463 382.782 384.852 383.403 385.359C384.035 385.856 384.542 386.457 384.925 387.161C385.308 387.865 385.608 388.652 385.826 389.522C386.043 390.381 386.188 391.313 386.261 392.317C386.333 393.311 386.369 394.352 386.369 395.439V395.641C386.369 397.163 386.219 398.597 385.919 399.943C385.629 401.279 385.158 402.464 384.506 403.5C383.853 404.535 383.009 405.384 381.974 406.047C380.949 406.699 379.706 407.103 378.247 407.258C378.754 408.211 379.215 408.957 379.629 409.495C380.043 410.044 380.457 410.453 380.871 410.722C381.285 411.002 381.72 411.172 382.176 411.234C382.632 411.307 383.154 411.343 383.745 411.343C384.273 411.343 384.749 411.323 385.174 411.281C385.598 411.24 385.914 411.198 386.121 411.157L386.525 412.663C386.297 412.798 386.012 412.927 385.671 413.052C385.339 413.176 384.982 413.285 384.599 413.378C384.226 413.471 383.843 413.544 383.45 413.595C383.066 413.657 382.709 413.688 382.378 413.688C381.632 413.688 380.985 413.595 380.436 413.409C379.888 413.223 379.411 412.969 379.008 412.648C378.604 412.327 378.257 411.954 377.967 411.53C377.687 411.105 377.439 410.655 377.221 410.178C377.004 409.712 376.807 409.236 376.631 408.749C376.466 408.263 376.3 407.792 376.134 407.336H375.839ZM376.709 405.426C378.127 405.426 379.272 405.177 380.141 404.68C381.021 404.183 381.7 403.495 382.176 402.615C382.663 401.734 382.989 400.694 383.154 399.493C383.32 398.281 383.403 396.966 383.403 395.548C383.403 394.699 383.382 393.865 383.341 393.047C383.299 392.229 383.201 391.458 383.046 390.733C382.901 389.998 382.683 389.325 382.393 388.714C382.114 388.103 381.731 387.58 381.244 387.145C380.757 386.7 380.152 386.353 379.427 386.105C378.702 385.856 377.827 385.732 376.802 385.732C375.86 385.732 375.042 385.846 374.348 386.074C373.654 386.291 373.059 386.607 372.562 387.021C372.075 387.435 371.677 387.937 371.366 388.528C371.066 389.118 370.828 389.775 370.652 390.5C370.476 391.225 370.351 392.012 370.279 392.861C370.217 393.71 370.186 394.605 370.186 395.548C370.186 396.355 370.206 397.158 370.248 397.955C370.3 398.752 370.398 399.519 370.543 400.254C370.698 400.979 370.921 401.657 371.211 402.288C371.501 402.92 371.884 403.469 372.36 403.935C372.847 404.401 373.442 404.768 374.146 405.037C374.861 405.296 375.715 405.426 376.709 405.426ZM397.738 405.208C398.163 405.125 398.593 405.063 399.028 405.022C399.473 404.98 399.908 404.934 400.332 404.882V386.011C399.908 385.96 399.494 385.903 399.09 385.841C398.686 385.778 398.267 385.701 397.832 385.608C397.811 385.369 397.816 385.142 397.847 384.924C397.889 384.696 397.946 384.463 398.018 384.225H407.29C408.543 384.225 409.646 384.339 410.599 384.567C411.551 384.784 412.343 385.157 412.975 385.685C413.617 386.213 414.098 386.917 414.419 387.798C414.751 388.678 414.916 389.775 414.916 391.09C414.916 392.405 414.782 393.555 414.512 394.538C414.254 395.522 413.819 396.34 413.208 396.992C412.597 397.644 411.779 398.131 410.754 398.452C409.739 398.773 408.481 398.934 406.98 398.934C406.358 398.934 405.748 398.903 405.147 398.84C404.557 398.768 403.884 398.675 403.128 398.561V404.882C403.335 404.913 403.599 404.944 403.92 404.975C404.251 405.006 404.593 405.037 404.945 405.069C405.297 405.1 405.634 405.136 405.955 405.177C406.286 405.208 406.555 405.245 406.762 405.286C406.845 405.762 406.845 406.239 406.762 406.715H397.832L397.738 405.208ZM405.582 397.054C406.928 397.137 408.015 397.054 408.843 396.806C409.682 396.547 410.334 396.148 410.8 395.61C411.266 395.061 411.577 394.383 411.732 393.575C411.898 392.757 411.981 391.825 411.981 390.78C411.981 389.972 411.908 389.268 411.763 388.667C411.629 388.056 411.323 387.549 410.847 387.145C410.381 386.741 409.693 386.446 408.781 386.26C407.881 386.063 406.669 385.98 405.147 386.011L403.128 386.042V396.915L405.582 397.054ZM417.665 405.317C418.069 405.172 418.525 405.069 419.032 405.006C419.55 404.934 420.026 404.872 420.461 404.82V386.089L417.914 385.608C417.893 385.556 417.878 385.463 417.867 385.328C417.867 385.183 417.867 385.069 417.867 384.986C417.867 384.841 417.888 384.696 417.929 384.551C417.971 384.407 418.012 384.298 418.054 384.225H425.773L425.928 385.53C425.555 385.665 425.12 385.778 424.623 385.872C424.126 385.965 423.666 386.037 423.241 386.089V404.82L426.13 405.348C426.151 405.4 426.161 405.478 426.161 405.581C426.171 405.674 426.177 405.757 426.177 405.83C426.177 405.975 426.156 406.14 426.114 406.327C426.073 406.513 426.032 406.642 425.99 406.715H417.805L417.665 405.317ZM429.034 405.317C429.438 405.172 429.863 405.069 430.308 405.006C430.764 404.934 431.204 404.872 431.628 404.82V386.089L429.034 385.608C429.014 385.556 429.003 385.473 429.003 385.359C429.003 385.235 429.003 385.136 429.003 385.064C429.003 384.909 429.024 384.748 429.065 384.583C429.107 384.417 429.143 384.298 429.174 384.225H435.014L436.132 386.151H436.148L445.078 401.683L446.336 404.758L446.103 401.325V386.089L443.385 385.608C443.365 385.556 443.354 385.473 443.354 385.359C443.354 385.235 443.354 385.136 443.354 385.064C443.354 384.909 443.375 384.748 443.416 384.583C443.458 384.417 443.499 384.298 443.541 384.225H450.685L450.825 385.561C450.421 385.675 450.038 385.778 449.676 385.872C449.313 385.965 448.915 386.037 448.48 386.089V406.715C448.262 406.798 447.998 406.865 447.688 406.917C447.387 406.979 447.077 407.025 446.756 407.057C446.445 407.088 446.14 407.103 445.839 407.103C445.539 407.103 445.285 407.082 445.078 407.041V406.994L434.905 389.351L433.88 386.788L434.02 389.459V404.82L437.064 405.317C437.085 405.369 437.095 405.452 437.095 405.566C437.106 405.669 437.111 405.757 437.111 405.83C437.111 405.975 437.085 406.14 437.033 406.327C436.992 406.513 436.955 406.642 436.924 406.715H429.174L429.034 405.317ZM457.41 405.317C457.607 405.245 457.84 405.188 458.109 405.146C458.378 405.094 458.653 405.048 458.932 405.006C459.212 404.965 459.486 404.934 459.756 404.913C460.035 404.882 460.278 404.851 460.486 404.82V385.903H455.174L454.879 389.646C454.578 389.687 454.268 389.708 453.947 389.708C453.626 389.698 453.346 389.666 453.108 389.615C453.077 389.325 453.041 388.968 452.999 388.543C452.958 388.108 452.922 387.658 452.891 387.192C452.86 386.716 452.834 386.244 452.813 385.778C452.792 385.302 452.782 384.867 452.782 384.474L453.108 384.225H470.659L471 384.474C471 384.867 470.99 385.302 470.969 385.778C470.949 386.244 470.917 386.716 470.876 387.192C470.845 387.658 470.809 388.108 470.767 388.543C470.726 388.968 470.69 389.325 470.659 389.615C470.42 389.666 470.141 389.698 469.82 389.708C469.509 389.708 469.204 389.687 468.904 389.646L468.593 385.903H463.266V404.758L466.698 405.348C466.719 405.4 466.729 405.478 466.729 405.581C466.729 405.674 466.729 405.757 466.729 405.83C466.729 405.975 466.708 406.14 466.667 406.327C466.626 406.513 466.584 406.642 466.543 406.715H457.55L457.41 405.317ZM474.852 386.089L472.274 385.608C472.253 385.556 472.238 385.473 472.227 385.359C472.227 385.235 472.227 385.136 472.227 385.064C472.227 384.909 472.248 384.748 472.289 384.583C472.331 384.417 472.372 384.298 472.414 384.225H480.428L480.568 385.53C480.381 385.602 480.164 385.67 479.915 385.732C479.667 385.784 479.408 385.835 479.139 385.887C478.88 385.929 478.626 385.97 478.378 386.011C478.14 386.042 477.927 386.068 477.741 386.089V397.287C477.741 398.064 477.756 398.799 477.788 399.493C477.829 400.176 477.912 400.813 478.036 401.403C478.171 401.983 478.373 402.511 478.642 402.987C478.911 403.453 479.273 403.852 479.729 404.183C480.195 404.515 480.77 404.768 481.453 404.944C482.147 405.12 482.985 405.208 483.969 405.208C484.828 405.208 485.558 405.115 486.159 404.929C486.77 404.742 487.277 404.489 487.681 404.168C488.095 403.836 488.421 403.453 488.66 403.018C488.898 402.573 489.079 402.102 489.203 401.605C489.327 401.098 489.405 400.57 489.436 400.021C489.478 399.472 489.498 398.923 489.498 398.374V386.089L486.842 385.608C486.822 385.556 486.806 385.473 486.796 385.359C486.796 385.235 486.796 385.136 486.796 385.064C486.796 384.909 486.816 384.748 486.858 384.583C486.899 384.417 486.941 384.298 486.982 384.225H494.189L494.329 385.561C494.173 385.623 493.992 385.685 493.785 385.747C493.578 385.799 493.366 385.846 493.148 385.887C492.931 385.929 492.718 385.965 492.511 385.996C492.304 386.027 492.118 386.053 491.952 386.074V398.374C491.952 399.648 491.823 400.823 491.564 401.9C491.305 402.967 490.839 403.888 490.166 404.665C489.503 405.441 488.597 406.047 487.448 406.482C486.309 406.917 484.86 407.134 483.099 407.134C481.898 407.134 480.858 407.025 479.977 406.808C479.097 406.601 478.352 406.301 477.741 405.907C477.13 405.514 476.633 405.037 476.25 404.478C475.877 403.919 475.587 403.298 475.38 402.615C475.173 401.931 475.033 401.191 474.961 400.394C474.888 399.586 474.852 398.742 474.852 397.862V386.089ZM496.612 405.348C497.005 405.203 497.43 405.1 497.885 405.037C498.341 404.965 498.781 404.903 499.205 404.851V386.011C498.781 385.96 498.367 385.903 497.963 385.841C497.559 385.778 497.14 385.701 496.705 385.608C496.684 385.369 496.689 385.142 496.72 384.924C496.762 384.696 496.819 384.463 496.891 384.225H505.604C506.95 384.225 508.1 384.324 509.052 384.52C510.005 384.717 510.781 385.054 511.382 385.53C511.993 386.006 512.438 386.648 512.718 387.456C512.997 388.253 513.137 389.252 513.137 390.453C513.137 391.199 513.059 391.96 512.904 392.737C512.749 393.503 512.48 394.217 512.096 394.88C511.724 395.543 511.222 396.128 510.59 396.635C509.958 397.132 509.171 397.479 508.229 397.676L512.935 404.882L515.28 405.286C515.291 405.296 515.296 405.353 515.296 405.457C515.296 405.56 515.286 405.685 515.265 405.83C515.255 405.975 515.234 406.13 515.203 406.295C515.172 406.451 515.135 406.591 515.094 406.715H510.621L505.604 398.064H505.014C504.704 398.064 504.439 398.064 504.222 398.064C504.015 398.064 503.808 398.059 503.601 398.048C503.394 398.038 503.166 398.028 502.917 398.017C502.679 398.007 502.374 397.986 502.001 397.955V404.851L504.486 405.348C504.507 405.4 504.517 405.483 504.517 405.597C504.528 405.71 504.533 405.804 504.533 405.876C504.533 406.021 504.512 406.182 504.471 406.358C504.429 406.523 504.388 406.642 504.346 406.715H496.751L496.612 405.348ZM504.455 396.324C505.542 396.324 506.453 396.205 507.189 395.967C507.924 395.719 508.514 395.351 508.959 394.864C509.415 394.367 509.741 393.746 509.938 393.001C510.134 392.245 510.233 391.359 510.233 390.345C510.233 389.661 510.155 389.045 510 388.496C509.844 387.948 509.575 387.482 509.192 387.099C508.809 386.716 508.286 386.426 507.623 386.229C506.971 386.032 506.148 385.949 505.154 385.98L502.001 386.042V396.324H504.455ZM516.523 405.317C516.595 405.286 516.694 405.25 516.818 405.208C516.953 405.167 517.092 405.131 517.237 405.1C517.393 405.058 517.548 405.022 517.703 404.991C517.859 404.949 517.998 404.913 518.123 404.882L525.174 384.225C525.433 384.184 525.707 384.158 525.997 384.148C526.297 384.127 526.587 384.117 526.867 384.117C527.157 384.117 527.436 384.127 527.706 384.148C527.975 384.168 528.218 384.194 528.436 384.225L535.704 404.96L537.335 405.317L537.18 406.715H529.911L529.771 405.317C529.978 405.265 530.211 405.213 530.47 405.162C530.729 405.11 530.993 405.063 531.262 405.022C531.542 404.98 531.811 404.944 532.07 404.913C532.329 404.882 532.562 404.851 532.769 404.82L530.781 399.011H522.378L520.437 404.82H520.515L523.667 405.317L523.528 406.715H516.694L516.523 405.317ZM530.206 397.21L526.789 387.347L526.51 386.369L526.121 388.046L523.015 397.21H530.206ZM540.286 400.269C540.483 400.259 540.654 400.254 540.799 400.254C540.944 400.254 541.078 400.259 541.202 400.269C541.337 400.269 541.472 400.28 541.606 400.3C541.751 400.321 541.927 400.342 542.134 400.362C542.186 400.663 542.228 400.937 542.259 401.186C542.29 401.424 542.321 401.667 542.352 401.916C542.383 402.164 542.414 402.428 542.445 402.708C542.476 402.977 542.517 403.298 542.569 403.671C542.921 403.888 543.284 404.095 543.656 404.292C544.04 404.489 544.438 404.66 544.852 404.804C545.277 404.949 545.722 405.069 546.188 405.162C546.654 405.245 547.161 405.286 547.71 405.286C548.383 405.286 548.968 405.198 549.465 405.022C549.962 404.846 550.371 404.603 550.692 404.292C551.013 403.971 551.251 403.583 551.407 403.127C551.562 402.671 551.64 402.164 551.64 401.605C551.64 401.336 551.629 401.082 551.609 400.844C551.588 400.595 551.541 400.357 551.469 400.13C551.396 399.902 551.293 399.684 551.158 399.477C551.023 399.27 550.842 399.068 550.615 398.871C550.004 398.354 549.362 397.893 548.689 397.489C548.016 397.085 547.327 396.697 546.623 396.324C545.929 395.952 545.23 395.579 544.526 395.206C543.822 394.823 543.134 394.398 542.46 393.932C542.098 393.674 541.772 393.415 541.482 393.156C541.202 392.887 540.959 392.592 540.752 392.271C540.555 391.939 540.405 391.572 540.302 391.168C540.198 390.754 540.146 390.272 540.146 389.723C540.146 388.709 540.291 387.854 540.581 387.161C540.871 386.457 541.275 385.866 541.793 385.39C542.424 384.8 543.154 384.386 543.983 384.148C544.821 383.899 545.795 383.775 546.902 383.775C547.493 383.775 548.098 383.801 548.72 383.853C549.351 383.904 549.962 383.982 550.552 384.086C551.153 384.179 551.717 384.293 552.245 384.427C552.784 384.562 553.265 384.707 553.69 384.862C553.617 385.701 553.529 386.545 553.426 387.394C553.333 388.243 553.213 389.045 553.068 389.801C552.851 389.822 552.665 389.837 552.509 389.848C552.354 389.848 552.209 389.848 552.074 389.848C551.95 389.837 551.816 389.827 551.671 389.817C551.536 389.806 551.376 389.786 551.189 389.755L550.941 386.679C550.257 386.317 549.543 386.042 548.797 385.856C548.052 385.659 547.317 385.561 546.592 385.561C546.022 385.561 545.499 385.628 545.023 385.763C544.557 385.898 544.153 386.105 543.812 386.384C543.47 386.653 543.206 387 543.02 387.425C542.833 387.839 542.74 388.336 542.74 388.916C542.74 389.33 542.792 389.703 542.895 390.034C542.999 390.365 543.154 390.676 543.361 390.966C543.579 391.246 543.853 391.51 544.184 391.758C544.516 392.007 544.909 392.255 545.365 392.504L550.723 395.517C551.624 396.014 552.318 396.506 552.804 396.992C553.301 397.479 553.664 397.965 553.892 398.452C554.13 398.939 554.27 399.431 554.311 399.928C554.363 400.414 554.389 400.916 554.389 401.434C554.389 402.024 554.316 402.563 554.171 403.049C554.037 403.526 553.845 403.961 553.597 404.354C553.348 404.737 553.058 405.079 552.727 405.379C552.395 405.669 552.043 405.918 551.671 406.125C551.236 406.363 550.785 406.549 550.319 406.684C549.864 406.818 549.413 406.917 548.968 406.979C548.523 407.051 548.104 407.093 547.71 407.103C547.317 407.124 546.975 407.134 546.685 407.134C546.084 407.134 545.448 407.072 544.775 406.948C544.102 406.834 543.455 406.684 542.833 406.497C542.212 406.311 541.643 406.109 541.125 405.892C540.607 405.664 540.198 405.446 539.898 405.239L540.286 400.269ZM565.152 405.317C565.556 405.172 566.011 405.069 566.519 405.006C567.036 404.934 567.513 404.872 567.948 404.82V386.089L565.4 385.608C565.38 385.556 565.364 385.463 565.354 385.328C565.354 385.183 565.354 385.069 565.354 384.986C565.354 384.841 565.375 384.696 565.416 384.551C565.457 384.407 565.499 384.298 565.54 384.225H573.259L573.415 385.53C573.042 385.665 572.607 385.778 572.11 385.872C571.613 385.965 571.152 386.037 570.728 386.089V404.82L573.617 405.348C573.637 405.4 573.648 405.478 573.648 405.581C573.658 405.674 573.663 405.757 573.663 405.83C573.663 405.975 573.642 406.14 573.601 406.327C573.56 406.513 573.518 406.642 573.477 406.715H565.292L565.152 405.317ZM576.521 405.317C576.925 405.172 577.349 405.069 577.795 405.006C578.25 404.934 578.69 404.872 579.115 404.82V386.089L576.521 385.608C576.5 385.556 576.49 385.473 576.49 385.359C576.49 385.235 576.49 385.136 576.49 385.064C576.49 384.909 576.511 384.748 576.552 384.583C576.593 384.417 576.63 384.298 576.661 384.225H582.501L583.619 386.151H583.634L592.565 401.683L593.823 404.758L593.59 401.325V386.089L590.872 385.608C590.851 385.556 590.841 385.473 590.841 385.359C590.841 385.235 590.841 385.136 590.841 385.064C590.841 384.909 590.862 384.748 590.903 384.583C590.944 384.417 590.986 384.298 591.027 384.225H598.172L598.312 385.561C597.908 385.675 597.525 385.778 597.162 385.872C596.8 385.965 596.401 386.037 595.966 386.089V406.715C595.749 406.798 595.485 406.865 595.174 406.917C594.874 406.979 594.563 407.025 594.242 407.057C593.932 407.088 593.626 407.103 593.326 407.103C593.026 407.103 592.772 407.082 592.565 407.041V406.994L582.392 389.351L581.367 386.788L581.507 389.459V404.82L584.551 405.317C584.571 405.369 584.582 405.452 584.582 405.566C584.592 405.669 584.597 405.757 584.597 405.83C584.597 405.975 584.571 406.14 584.52 406.327C584.478 406.513 584.442 406.642 584.411 406.715H576.661L576.521 405.317ZM601.263 405.239C601.687 405.157 602.122 405.079 602.567 405.006C603.023 404.934 603.468 404.872 603.903 404.82V386.042C603.468 385.991 603.049 385.939 602.645 385.887C602.241 385.825 601.827 385.742 601.402 385.639C601.351 385.162 601.397 384.691 601.542 384.225H610.426C611.358 384.225 612.254 384.293 613.113 384.427C613.983 384.551 614.79 384.769 615.536 385.08C616.281 385.38 616.96 385.784 617.571 386.291C618.181 386.798 618.699 387.425 619.124 388.17C619.559 388.916 619.895 389.796 620.133 390.811C620.371 391.815 620.49 392.98 620.49 394.305V395.579C620.49 397.608 620.252 399.332 619.776 400.751C619.31 402.159 618.621 403.308 617.71 404.199C616.799 405.079 615.681 405.721 614.356 406.125C613.03 406.518 611.513 406.715 609.805 406.715H601.356L601.263 405.239ZM610.038 404.929H610.814C612.015 404.929 613.041 404.716 613.89 404.292C614.739 403.857 615.427 403.241 615.955 402.444C616.494 401.646 616.887 400.678 617.136 399.539C617.384 398.4 617.508 397.122 617.508 395.703V394.523C617.508 392.918 617.343 391.582 617.011 390.516C616.69 389.449 616.188 388.59 615.505 387.937C614.821 387.285 613.941 386.814 612.865 386.524C611.798 386.234 610.519 386.063 609.028 386.011L606.683 386.042V404.82L610.038 404.929ZM625.942 386.089L623.364 385.608C623.343 385.556 623.328 385.473 623.317 385.359C623.317 385.235 623.317 385.136 623.317 385.064C623.317 384.909 623.338 384.748 623.379 384.583C623.421 384.417 623.462 384.298 623.504 384.225H631.518L631.658 385.53C631.471 385.602 631.254 385.67 631.005 385.732C630.757 385.784 630.498 385.835 630.229 385.887C629.97 385.929 629.716 385.97 629.468 386.011C629.229 386.042 629.017 386.068 628.831 386.089V397.287C628.831 398.064 628.846 398.799 628.877 399.493C628.919 400.176 629.002 400.813 629.126 401.403C629.261 401.983 629.462 402.511 629.732 402.987C630.001 403.453 630.363 403.852 630.819 404.183C631.285 404.515 631.859 404.768 632.543 404.944C633.237 405.12 634.075 405.208 635.059 405.208C635.918 405.208 636.648 405.115 637.249 404.929C637.86 404.742 638.367 404.489 638.771 404.168C639.185 403.836 639.511 403.453 639.749 403.018C639.988 402.573 640.169 402.102 640.293 401.605C640.417 401.098 640.495 400.57 640.526 400.021C640.567 399.472 640.588 398.923 640.588 398.374V386.089L637.932 385.608C637.912 385.556 637.896 385.473 637.886 385.359C637.886 385.235 637.886 385.136 637.886 385.064C637.886 384.909 637.906 384.748 637.948 384.583C637.989 384.417 638.031 384.298 638.072 384.225H645.279L645.418 385.561C645.263 385.623 645.082 385.685 644.875 385.747C644.668 385.799 644.455 385.846 644.238 385.887C644.021 385.929 643.808 385.965 643.601 385.996C643.394 386.027 643.208 386.053 643.042 386.074V398.374C643.042 399.648 642.913 400.823 642.654 401.9C642.395 402.967 641.929 403.888 641.256 404.665C640.593 405.441 639.687 406.047 638.538 406.482C637.399 406.917 635.949 407.134 634.189 407.134C632.988 407.134 631.947 407.025 631.067 406.808C630.187 406.601 629.442 406.301 628.831 405.907C628.22 405.514 627.723 405.037 627.34 404.478C626.967 403.919 626.677 403.298 626.47 402.615C626.263 401.931 626.123 401.191 626.051 400.394C625.978 399.586 625.942 398.742 625.942 397.862V386.089ZM648.571 400.269C648.768 400.259 648.939 400.254 649.084 400.254C649.229 400.254 649.363 400.259 649.488 400.269C649.622 400.269 649.757 400.28 649.891 400.3C650.036 400.321 650.212 400.342 650.42 400.362C650.471 400.663 650.513 400.937 650.544 401.186C650.575 401.424 650.606 401.667 650.637 401.916C650.668 402.164 650.699 402.428 650.73 402.708C650.761 402.977 650.803 403.298 650.854 403.671C651.206 403.888 651.569 404.095 651.942 404.292C652.325 404.489 652.723 404.66 653.138 404.804C653.562 404.949 654.007 405.069 654.473 405.162C654.939 405.245 655.447 405.286 655.995 405.286C656.668 405.286 657.253 405.198 657.75 405.022C658.247 404.846 658.656 404.603 658.977 404.292C659.298 403.971 659.537 403.583 659.692 403.127C659.847 402.671 659.925 402.164 659.925 401.605C659.925 401.336 659.914 401.082 659.894 400.844C659.873 400.595 659.826 400.357 659.754 400.13C659.681 399.902 659.578 399.684 659.443 399.477C659.309 399.27 659.128 399.068 658.9 398.871C658.289 398.354 657.647 397.893 656.974 397.489C656.301 397.085 655.612 396.697 654.908 396.324C654.214 395.952 653.515 395.579 652.811 395.206C652.107 394.823 651.419 394.398 650.746 393.932C650.383 393.674 650.057 393.415 649.767 393.156C649.488 392.887 649.244 392.592 649.037 392.271C648.841 391.939 648.69 391.572 648.587 391.168C648.483 390.754 648.432 390.272 648.432 389.723C648.432 388.709 648.576 387.854 648.866 387.161C649.156 386.457 649.56 385.866 650.078 385.39C650.709 384.8 651.439 384.386 652.268 384.148C653.106 383.899 654.08 383.775 655.188 383.775C655.778 383.775 656.384 383.801 657.005 383.853C657.636 383.904 658.247 383.982 658.838 384.086C659.438 384.179 660.002 384.293 660.531 384.427C661.069 384.562 661.55 384.707 661.975 384.862C661.902 385.701 661.814 386.545 661.711 387.394C661.618 388.243 661.499 389.045 661.354 389.801C661.136 389.822 660.95 389.837 660.795 389.848C660.639 389.848 660.494 389.848 660.36 389.848C660.235 389.837 660.101 389.827 659.956 389.817C659.821 389.806 659.661 389.786 659.474 389.755L659.226 386.679C658.542 386.317 657.828 386.042 657.083 385.856C656.337 385.659 655.602 385.561 654.877 385.561C654.308 385.561 653.785 385.628 653.308 385.763C652.842 385.898 652.439 386.105 652.097 386.384C651.755 386.653 651.491 387 651.305 387.425C651.118 387.839 651.025 388.336 651.025 388.916C651.025 389.33 651.077 389.703 651.181 390.034C651.284 390.365 651.439 390.676 651.647 390.966C651.864 391.246 652.138 391.51 652.47 391.758C652.801 392.007 653.195 392.255 653.65 392.504L659.008 395.517C659.909 396.014 660.603 396.506 661.09 396.992C661.587 397.479 661.949 397.965 662.177 398.452C662.415 398.939 662.555 399.431 662.596 399.928C662.648 400.414 662.674 400.916 662.674 401.434C662.674 402.024 662.601 402.563 662.456 403.049C662.322 403.526 662.13 403.961 661.882 404.354C661.633 404.737 661.343 405.079 661.012 405.379C660.681 405.669 660.329 405.918 659.956 406.125C659.521 406.363 659.071 406.549 658.605 406.684C658.149 406.818 657.699 406.917 657.253 406.979C656.808 407.051 656.389 407.093 655.995 407.103C655.602 407.124 655.26 407.134 654.97 407.134C654.37 407.134 653.733 407.072 653.06 406.948C652.387 406.834 651.74 406.684 651.118 406.497C650.497 406.311 649.928 406.109 649.41 405.892C648.892 405.664 648.483 405.446 648.183 405.239L648.571 400.269ZM669.818 405.317C670.015 405.245 670.248 405.188 670.517 405.146C670.786 405.094 671.061 405.048 671.34 405.006C671.62 404.965 671.894 404.934 672.164 404.913C672.443 404.882 672.686 404.851 672.894 404.82V385.903H667.582L667.287 389.646C666.986 389.687 666.676 389.708 666.355 389.708C666.034 389.698 665.754 389.666 665.516 389.615C665.485 389.325 665.449 388.968 665.407 388.543C665.366 388.108 665.33 387.658 665.299 387.192C665.268 386.716 665.242 386.244 665.221 385.778C665.2 385.302 665.19 384.867 665.19 384.474L665.516 384.225H683.067L683.408 384.474C683.408 384.867 683.398 385.302 683.377 385.778C683.357 386.244 683.326 386.716 683.284 387.192C683.253 387.658 683.217 388.108 683.175 388.543C683.134 388.968 683.098 389.325 683.067 389.615C682.829 389.666 682.549 389.698 682.228 389.708C681.917 389.708 681.612 389.687 681.312 389.646L681.001 385.903H675.674V404.758L679.106 405.348C679.127 405.4 679.137 405.478 679.137 405.581C679.137 405.674 679.137 405.757 679.137 405.83C679.137 405.975 679.116 406.14 679.075 406.327C679.034 406.513 678.992 406.642 678.951 406.715H669.958L669.818 405.317ZM685.381 405.348C685.774 405.203 686.199 405.1 686.654 405.037C687.11 404.965 687.55 404.903 687.975 404.851V386.011C687.55 385.96 687.136 385.903 686.732 385.841C686.328 385.778 685.909 385.701 685.474 385.608C685.453 385.369 685.458 385.142 685.49 384.924C685.531 384.696 685.588 384.463 685.66 384.225H694.374C695.72 384.225 696.869 384.324 697.822 384.52C698.774 384.717 699.551 385.054 700.151 385.53C700.762 386.006 701.207 386.648 701.487 387.456C701.767 388.253 701.906 389.252 701.906 390.453C701.906 391.199 701.829 391.96 701.673 392.737C701.518 393.503 701.249 394.217 700.866 394.88C700.493 395.543 699.991 396.128 699.359 396.635C698.728 397.132 697.941 397.479 696.998 397.676L701.704 404.882L704.05 405.286C704.06 405.296 704.065 405.353 704.065 405.457C704.065 405.56 704.055 405.685 704.034 405.83C704.024 405.975 704.003 406.13 703.972 406.295C703.941 406.451 703.905 406.591 703.863 406.715H699.39L694.374 398.064H693.783C693.473 398.064 693.209 398.064 692.991 398.064C692.784 398.064 692.577 398.059 692.37 398.048C692.163 398.038 691.935 398.028 691.687 398.017C691.448 398.007 691.143 397.986 690.77 397.955V404.851L693.255 405.348C693.276 405.4 693.286 405.483 693.286 405.597C693.297 405.71 693.302 405.804 693.302 405.876C693.302 406.021 693.281 406.182 693.24 406.358C693.198 406.523 693.157 406.642 693.115 406.715H685.521L685.381 405.348ZM693.224 396.324C694.311 396.324 695.223 396.205 695.958 395.967C696.693 395.719 697.283 395.351 697.728 394.864C698.184 394.367 698.51 393.746 698.707 393.001C698.904 392.245 699.002 391.359 699.002 390.345C699.002 389.661 698.924 389.045 698.769 388.496C698.614 387.948 698.344 387.482 697.961 387.099C697.578 386.716 697.055 386.426 696.393 386.229C695.74 386.032 694.917 385.949 693.923 385.98L690.77 386.042V396.324H693.224ZM706.209 405.317C706.612 405.172 707.068 405.069 707.575 405.006C708.093 404.934 708.569 404.872 709.004 404.82V386.089L706.457 385.608C706.436 385.556 706.421 385.463 706.41 385.328C706.41 385.183 706.41 385.069 706.41 384.986C706.41 384.841 706.431 384.696 706.473 384.551C706.514 384.407 706.555 384.298 706.597 384.225H714.316L714.471 385.53C714.098 385.665 713.664 385.778 713.167 385.872C712.67 385.965 712.209 386.037 711.784 386.089V404.82L714.673 405.348C714.694 405.4 714.704 405.478 714.704 405.581C714.715 405.674 714.72 405.757 714.72 405.83C714.72 405.975 714.699 406.14 714.658 406.327C714.616 406.513 714.575 406.642 714.533 406.715H706.348L706.209 405.317ZM716.63 405.317C716.703 405.286 716.801 405.25 716.925 405.208C717.06 405.167 717.2 405.131 717.345 405.1C717.5 405.058 717.655 405.022 717.811 404.991C717.966 404.949 718.106 404.913 718.23 404.882L725.281 384.225C725.54 384.184 725.814 384.158 726.104 384.148C726.405 384.127 726.694 384.117 726.974 384.117C727.264 384.117 727.544 384.127 727.813 384.148C728.082 384.168 728.325 384.194 728.543 384.225L735.811 404.96L737.442 405.317L737.287 406.715H730.018L729.878 405.317C730.086 405.265 730.318 405.213 730.577 405.162C730.836 405.11 731.1 405.063 731.369 405.022C731.649 404.98 731.918 404.944 732.177 404.913C732.436 404.882 732.669 404.851 732.876 404.82L730.888 399.011H722.485L720.544 404.82H720.622L723.775 405.317L723.635 406.715H716.801L716.63 405.317ZM730.313 397.21L726.896 387.347L726.617 386.369L726.229 388.046L723.122 397.21H730.313ZM739.415 405.317C739.819 405.172 740.274 405.069 740.781 405.006C741.299 404.934 741.776 404.872 742.21 404.82V386.089L739.663 385.608C739.643 385.556 739.627 385.463 739.617 385.328C739.617 385.183 739.617 385.069 739.617 384.986C739.617 384.841 739.637 384.696 739.679 384.551C739.72 384.407 739.762 384.298 739.803 384.225H747.522L747.677 385.53C747.305 385.665 746.87 385.778 746.373 385.872C745.876 385.965 745.415 386.037 744.991 386.089V404.82L747.879 405.348C747.9 405.4 747.91 405.478 747.91 405.581C747.921 405.674 747.926 405.757 747.926 405.83C747.926 405.975 747.905 406.14 747.864 406.327C747.822 406.513 747.781 406.642 747.74 406.715H739.555L739.415 405.317ZM751.731 400.269C751.928 400.259 752.099 400.254 752.244 400.254C752.389 400.254 752.523 400.259 752.648 400.269C752.782 400.269 752.917 400.28 753.051 400.3C753.196 400.321 753.372 400.342 753.579 400.362C753.631 400.663 753.673 400.937 753.704 401.186C753.735 401.424 753.766 401.667 753.797 401.916C753.828 402.164 753.859 402.428 753.89 402.708C753.921 402.977 753.963 403.298 754.014 403.671C754.366 403.888 754.729 404.095 755.102 404.292C755.485 404.489 755.883 404.66 756.297 404.804C756.722 404.949 757.167 405.069 757.633 405.162C758.099 405.245 758.606 405.286 759.155 405.286C759.828 405.286 760.413 405.198 760.91 405.022C761.407 404.846 761.816 404.603 762.137 404.292C762.458 403.971 762.696 403.583 762.852 403.127C763.007 402.671 763.085 402.164 763.085 401.605C763.085 401.336 763.074 401.082 763.054 400.844C763.033 400.595 762.986 400.357 762.914 400.13C762.841 399.902 762.738 399.684 762.603 399.477C762.469 399.27 762.287 399.068 762.06 398.871C761.449 398.354 760.807 397.893 760.134 397.489C759.461 397.085 758.772 396.697 758.068 396.324C757.374 395.952 756.675 395.579 755.971 395.206C755.267 394.823 754.579 394.398 753.906 393.932C753.543 393.674 753.217 393.415 752.927 393.156C752.648 392.887 752.404 392.592 752.197 392.271C752 391.939 751.85 391.572 751.747 391.168C751.643 390.754 751.591 390.272 751.591 389.723C751.591 388.709 751.736 387.854 752.026 387.161C752.316 386.457 752.72 385.866 753.238 385.39C753.869 384.8 754.599 384.386 755.428 384.148C756.266 383.899 757.24 383.775 758.348 383.775C758.938 383.775 759.544 383.801 760.165 383.853C760.796 383.904 761.407 383.982 761.997 384.086C762.598 384.179 763.162 384.293 763.69 384.427C764.229 384.562 764.71 384.707 765.135 384.862C765.062 385.701 764.974 386.545 764.871 387.394C764.778 388.243 764.659 389.045 764.514 389.801C764.296 389.822 764.11 389.837 763.954 389.848C763.799 389.848 763.654 389.848 763.52 389.848C763.395 389.837 763.261 389.827 763.116 389.817C762.981 389.806 762.821 389.786 762.634 389.755L762.386 386.679C761.702 386.317 760.988 386.042 760.242 385.856C759.497 385.659 758.762 385.561 758.037 385.561C757.467 385.561 756.945 385.628 756.468 385.763C756.002 385.898 755.599 386.105 755.257 386.384C754.915 386.653 754.651 387 754.465 387.425C754.278 387.839 754.185 388.336 754.185 388.916C754.185 389.33 754.237 389.703 754.34 390.034C754.444 390.365 754.599 390.676 754.806 390.966C755.024 391.246 755.298 391.51 755.63 391.758C755.961 392.007 756.354 392.255 756.81 392.504L762.168 395.517C763.069 396.014 763.763 396.506 764.25 396.992C764.747 397.479 765.109 397.965 765.337 398.452C765.575 398.939 765.715 399.431 765.756 399.928C765.808 400.414 765.834 400.916 765.834 401.434C765.834 402.024 765.761 402.563 765.616 403.049C765.482 403.526 765.29 403.961 765.042 404.354C764.793 404.737 764.503 405.079 764.172 405.379C763.841 405.669 763.488 405.918 763.116 406.125C762.681 406.363 762.23 406.549 761.765 406.684C761.309 406.818 760.859 406.917 760.413 406.979C759.968 407.051 759.549 407.093 759.155 407.103C758.762 407.124 758.42 407.134 758.13 407.134C757.53 407.134 756.893 407.072 756.22 406.948C755.547 406.834 754.9 406.684 754.278 406.497C753.657 406.311 753.088 406.109 752.57 405.892C752.052 405.664 751.643 405.446 751.343 405.239L751.731 400.269Z"
        fill="#BFA976" />
</svg>