<svg width="133" height="146" viewBox="0 0 133 146" fill="none" xmlns="http://www.w3.org/2000/svg">
    <path
        d="M43.2832 51.3899L45.9402 54.8769C45.9402 54.8769 55.4042 57.4509 55.3212 57.9489C55.2382 58.4469 56.0682 69.0739 56.0682 69.0739L59.2232 55.2089L43.2832 51.3899Z"
        fill="#BFA976" />
    <path
        d="M72.8379 55.2089L75.9929 69.0739C75.9929 69.0739 76.8229 58.4469 76.7399 57.9489C76.6569 57.4509 86.1209 54.8769 86.1209 54.8769L88.7779 51.3899L72.8379 55.2089Z"
        fill="#BFA976" />
    <path
        d="M103.556 45.5231L94.2578 37.1101L109.534 36.0031L99.7928 30.0251L89.9408 31.3531C89.9408 31.3531 95.0328 27.1471 95.3648 26.9251C95.6968 26.7041 82.4138 31.0211 82.4138 31.0211L88.6128 22.2761C88.6128 22.2761 73.0048 31.5741 72.6728 31.6851C72.3408 31.7961 81.5288 17.7371 81.5288 17.7371L66.0318 28.7211L50.5348 17.7371C50.5348 17.7371 59.7228 31.7951 59.3908 31.6851C59.0588 31.5741 43.4508 22.2761 43.4508 22.2761L49.6498 31.0211C49.6498 31.0211 36.3658 26.7041 36.6988 26.9251C37.0308 27.1461 42.1228 31.3531 42.1228 31.3531L32.2708 30.0251L22.5298 36.0031L37.8058 37.1101L28.5078 45.5231L34.9278 43.4201L24.3008 62.3491L31.7178 57.2571L25.9618 72.6441C25.9618 72.6441 28.6188 87.5881 28.7288 87.1451C28.8398 86.7021 32.9348 70.7621 32.9348 70.7621L34.0418 95.8901L36.9198 83.3821L40.3518 98.5471L46.1078 111.72L46.3288 100.208L50.3138 117.255C50.3138 117.255 55.4058 124.007 55.1848 123.232C54.9638 122.457 54.0778 111.056 54.0778 111.056L58.8378 123.011L66.0328 129.653L73.2278 123.011L77.9878 111.056C77.9878 111.056 77.1028 122.458 76.8808 123.232C76.6598 124.007 81.7518 117.255 81.7518 117.255L85.7368 100.208L85.9578 111.72L91.7138 98.5471L95.1458 83.3821L98.0238 95.8901L99.1308 70.7621C99.1308 70.7621 103.227 86.7021 103.337 87.1451C103.447 87.5881 106.104 72.6441 106.104 72.6441L100.348 57.2571L107.765 62.3491L97.1378 43.4201L103.556 45.5231ZM73.6688 105.963L74.5548 102.421L74.9978 98.7681L69.7948 105.742L66.0308 101.615L62.2668 105.742L57.0638 98.7681L57.5068 102.421L58.3918 105.963L53.1888 101.203L55.0708 93.2331L59.7078 90.4511C63.5988 88.1161 68.4608 88.1161 72.3518 90.4511L76.9888 93.2331L78.8708 101.203L73.6688 105.963ZM89.7748 64.6731L93.7598 61.7671L89.2768 72.3941L81.4728 69.9861L85.3748 75.5481L78.6498 70.8991L90.0238 82.9371L79.8118 90.7411L66.6948 84.8461V80.6121L69.1028 75.9631L74.6648 74.7181L71.1778 72.5591L69.1018 73.3891H66.0298H62.9578L60.8818 72.5591L57.3948 74.7181L62.9578 75.9631L65.3658 80.6121V84.8461L52.2488 90.7411L42.0368 82.9371L53.4108 70.8991L46.6858 75.5481L50.5878 69.9861L42.7838 72.3941L38.3008 61.7671L42.2858 64.6731L36.8898 55.7071L37.3878 50.2281L39.1308 53.2171L44.3608 42.6731L44.5268 45.0811L50.5878 38.0241L47.5158 32.8771L54.0748 37.6091L52.0828 33.1261L58.7248 38.5221L56.6488 34.0391L66.0298 39.6281L75.4108 34.0391L73.3348 38.5221L79.9768 33.1261L77.9838 37.6091L84.5428 32.8771L81.4708 38.0241L87.5318 45.0811L87.6978 42.6731L92.9278 53.2171L94.6708 50.2281L95.1688 55.7071L89.7748 64.6731Z"
        fill="#BFA976" />
    <path
        d="M132.06 66.998L125.833 56.537L121.931 45.412L130.15 49.231C130.15 49.231 115.042 31.811 114.631 31.636C114.959 31.763 122.263 34.122 122.263 34.122L106.489 14.695L98.934 11.457H110.308L96.443 4.4L91.96 5.811L80.586 0L66.03 8.13L51.474 0L40.1 5.811L35.617 4.4L21.752 11.457H33.126L25.571 14.695L9.797 34.122C9.797 34.122 17.101 31.763 17.429 31.636C17.018 31.812 1.91 49.231 1.91 49.231L10.129 45.412L6.22699 56.537L0 66.998L8.46802 63.179L2.241 73.474L2.98801 83.686C2.98801 83.686 8.384 76.795 8.384 77.21C8.384 77.625 8.384 92.735 8.384 92.735L19.758 112.66L19.924 98.38L26.898 120.298L39.185 129.928L35.864 119.135L46.159 133.913L57.948 140.389L57.616 130.592L66.029 145.609L74.442 130.592L74.11 140.389L85.899 133.913L96.194 119.135L92.873 129.928L105.16 120.298L112.134 98.38L112.3 112.66L123.674 92.735C123.674 92.735 123.674 77.625 123.674 77.21C123.674 76.795 129.07 83.686 129.07 83.686L129.817 73.474L123.59 63.179L132.06 66.998ZM119.939 87.587L115.622 98.38L107.818 76.13L107.32 106.682L100.512 120.796L102.339 92.901L98.686 110.667L92.543 117.973L94.037 101.037L83.576 130.593C83.576 130.593 76.317 135.873 76.108 136.399C76.326 135.833 82.082 119.967 82.082 119.967L66.031 136.172L49.98 119.967C49.98 119.967 55.735 135.833 55.954 136.399C55.745 135.873 48.486 130.593 48.486 130.593L38.025 101.037L39.519 117.973L33.376 110.667L29.723 92.901L31.55 120.796L24.742 106.682L24.244 76.13L16.44 98.38L12.123 87.587L25.406 53.382L8.47 70.983L25.572 44.084L8.30402 58.696L12.289 46.243L20.259 37.443L14.613 40.266L23.247 29.473L34.704 27.315L24.741 23.164L33.043 17.685L43.67 19.345L32.047 13.7L42.84 12.538L53.965 16.855L40.017 7.059L46.327 8.055L63.097 19.014L55.957 10.546L47.987 4.236L61.436 10.38L66.03 20.243L70.624 10.38L84.073 4.236L76.103 10.546L68.963 19.014L85.733 8.055L92.043 7.059L78.095 16.855L89.22 12.538L100.013 13.7L88.39 19.345L99.017 17.685L107.319 23.164L97.356 27.315L108.813 29.473L117.447 40.266L111.801 37.443L119.771 46.243L123.756 58.696L106.488 44.084L123.59 70.983L106.654 53.382L119.939 87.587Z"
        fill="#BFA976" />
</svg>