<svg width="522" height="187" viewBox="0 0 522 187" fill="none" xmlns="http://www.w3.org/2000/svg">
    <path
        d="M238.283 51.3899L240.94 54.8769C240.94 54.8769 250.404 57.4509 250.321 57.9489C250.238 58.4469 251.068 69.0739 251.068 69.0739L254.223 55.2089L238.283 51.3899Z"
        fill="#BFA976" />
    <path
        d="M267.838 55.2089L270.993 69.0739C270.993 69.0739 271.823 58.4469 271.74 57.9489C271.657 57.4509 281.121 54.8769 281.121 54.8769L283.778 51.3899L267.838 55.2089Z"
        fill="#BFA976" />
    <path
        d="M298.556 45.5231L289.258 37.1101L304.534 36.0031L294.793 30.0251L284.941 31.3531C284.941 31.3531 290.033 27.1471 290.365 26.9251C290.697 26.7041 277.414 31.0211 277.414 31.0211L283.613 22.2761C283.613 22.2761 268.005 31.5741 267.673 31.6851C267.341 31.7961 276.529 17.7371 276.529 17.7371L261.032 28.7211L245.535 17.7371C245.535 17.7371 254.723 31.7951 254.391 31.6851C254.059 31.5741 238.451 22.2761 238.451 22.2761L244.65 31.0211C244.65 31.0211 231.366 26.7041 231.699 26.9251C232.031 27.1461 237.123 31.3531 237.123 31.3531L227.271 30.0251L217.53 36.0031L232.806 37.1101L223.508 45.5231L229.928 43.4201L219.301 62.3491L226.718 57.2571L220.962 72.6441C220.962 72.6441 223.619 87.5881 223.729 87.1451C223.84 86.7021 227.935 70.7621 227.935 70.7621L229.042 95.8901L231.92 83.3821L235.352 98.5471L241.108 111.72L241.329 100.208L245.314 117.255C245.314 117.255 250.406 124.007 250.185 123.232C249.964 122.457 249.078 111.056 249.078 111.056L253.838 123.011L261.033 129.653L268.228 123.011L272.988 111.056C272.988 111.056 272.103 122.458 271.881 123.232C271.66 124.007 276.752 117.255 276.752 117.255L280.737 100.208L280.958 111.72L286.714 98.5471L290.146 83.3821L293.024 95.8901L294.131 70.7621C294.131 70.7621 298.227 86.7021 298.337 87.1451C298.447 87.5881 301.104 72.6441 301.104 72.6441L295.348 57.2571L302.765 62.3491L292.138 43.4201L298.556 45.5231ZM268.669 105.963L269.555 102.421L269.998 98.7681L264.795 105.742L261.031 101.615L257.267 105.742L252.064 98.7681L252.507 102.421L253.392 105.963L248.189 101.203L250.071 93.2331L254.708 90.4511C258.599 88.1161 263.461 88.1161 267.352 90.4511L271.989 93.2331L273.871 101.203L268.669 105.963ZM284.775 64.6731L288.76 61.7671L284.277 72.3941L276.473 69.9861L280.375 75.5481L273.65 70.8991L285.024 82.9371L274.812 90.7411L261.695 84.8461V80.6121L264.103 75.9631L269.665 74.7181L266.178 72.5591L264.102 73.3891H261.03H257.958L255.882 72.5591L252.395 74.7181L257.958 75.9631L260.366 80.6121V84.8461L247.249 90.7411L237.037 82.9371L248.411 70.8991L241.686 75.5481L245.588 69.9861L237.784 72.3941L233.301 61.7671L237.286 64.6731L231.89 55.7071L232.388 50.2281L234.131 53.2171L239.361 42.6731L239.527 45.0811L245.588 38.0241L242.516 32.8771L249.075 37.6091L247.083 33.1261L253.725 38.5221L251.649 34.0391L261.03 39.6281L270.411 34.0391L268.335 38.5221L274.977 33.1261L272.984 37.6091L279.543 32.8771L276.471 38.0241L282.532 45.0811L282.698 42.6731L287.928 53.2171L289.671 50.2281L290.169 55.7071L284.775 64.6731Z"
        fill="#BFA976" />
    <path
        d="M327.06 66.998L320.833 56.537L316.931 45.412L325.15 49.231C325.15 49.231 310.042 31.811 309.631 31.636C309.959 31.763 317.263 34.122 317.263 34.122L301.489 14.695L293.934 11.457H305.308L291.443 4.4L286.96 5.811L275.586 0L261.03 8.13L246.474 0L235.1 5.811L230.617 4.4L216.752 11.457H228.126L220.571 14.695L204.797 34.122C204.797 34.122 212.101 31.763 212.429 31.636C212.018 31.812 196.91 49.231 196.91 49.231L205.129 45.412L201.227 56.537L195 66.998L203.468 63.179L197.241 73.474L197.988 83.686C197.988 83.686 203.384 76.795 203.384 77.21C203.384 77.625 203.384 92.735 203.384 92.735L214.758 112.66L214.924 98.38L221.898 120.298L234.185 129.928L230.864 119.135L241.159 133.913L252.948 140.389L252.616 130.592L261.029 145.609L269.442 130.592L269.11 140.389L280.899 133.913L291.194 119.135L287.873 129.928L300.16 120.298L307.134 98.38L307.3 112.66L318.674 92.735C318.674 92.735 318.674 77.625 318.674 77.21C318.674 76.795 324.07 83.686 324.07 83.686L324.817 73.474L318.59 63.179L327.06 66.998ZM314.939 87.587L310.622 98.38L302.818 76.13L302.32 106.682L295.512 120.796L297.339 92.901L293.686 110.667L287.543 117.973L289.037 101.037L278.576 130.593C278.576 130.593 271.317 135.873 271.108 136.399C271.326 135.833 277.082 119.967 277.082 119.967L261.031 136.172L244.98 119.967C244.98 119.967 250.735 135.833 250.954 136.399C250.745 135.873 243.486 130.593 243.486 130.593L233.025 101.037L234.519 117.973L228.376 110.667L224.723 92.901L226.55 120.796L219.742 106.682L219.244 76.13L211.44 98.38L207.123 87.587L220.406 53.382L203.47 70.983L220.572 44.084L203.304 58.696L207.289 46.243L215.259 37.443L209.613 40.266L218.247 29.473L229.704 27.315L219.741 23.164L228.043 17.685L238.67 19.345L227.047 13.7L237.84 12.538L248.965 16.855L235.017 7.059L241.327 8.055L258.097 19.014L250.957 10.546L242.987 4.236L256.436 10.38L261.03 20.243L265.624 10.38L279.073 4.236L271.103 10.546L263.963 19.014L280.733 8.055L287.043 7.059L273.095 16.855L284.22 12.538L295.013 13.7L283.39 19.345L294.017 17.685L302.319 23.164L292.356 27.315L303.813 29.473L312.447 40.266L306.801 37.443L314.771 46.243L318.756 58.696L301.488 44.084L318.59 70.983L301.654 53.382L314.939 87.587Z"
        fill="#BFA976" />
    <path
        d="M1.58421 175.317C1.97767 175.172 2.4022 175.074 2.85779 175.022C3.31337 174.96 3.75343 174.903 4.17796 174.851V156.089L1.64633 155.608C1.62562 155.473 1.62045 155.359 1.6308 155.266C1.64116 155.162 1.64633 155.069 1.64633 154.986C1.66704 154.81 1.68775 154.66 1.70846 154.536C1.72917 154.401 1.75505 154.298 1.78612 154.225H9.90906L10.0488 155.53C9.87282 155.592 9.6502 155.649 9.38099 155.701C9.12214 155.753 8.84775 155.804 8.55783 155.856C8.27826 155.908 7.99352 155.954 7.7036 155.996C7.42403 156.027 7.1807 156.058 6.97362 156.089V174.851H14.8636L15.9663 171.139C16.2666 171.118 16.5669 171.118 16.8671 171.139C17.1778 171.16 17.4522 171.206 17.6903 171.279C17.68 171.641 17.6593 172.061 17.6282 172.537C17.6075 173.003 17.5764 173.479 17.535 173.966C17.4936 174.442 17.4522 174.903 17.4107 175.348C17.3693 175.783 17.3331 176.156 17.302 176.466L16.9603 176.715H1.72399L1.58421 175.317ZM20.02 175.317C20.4239 175.172 20.8794 175.069 21.3868 175.006C21.9045 174.934 22.3808 174.872 22.8157 174.82V156.089L20.2685 155.608C20.2478 155.556 20.2323 155.463 20.2219 155.328C20.2219 155.183 20.2219 155.069 20.2219 154.986C20.2219 154.841 20.2427 154.696 20.2841 154.551C20.3255 154.407 20.3669 154.298 20.4083 154.225H28.1274L28.2828 155.53C27.91 155.665 27.4751 155.778 26.9781 155.872C26.4811 155.965 26.0203 156.037 25.5958 156.089V174.82L28.4847 175.348C28.5054 175.4 28.5157 175.478 28.5157 175.581C28.5261 175.674 28.5313 175.757 28.5313 175.83C28.5313 175.975 28.5106 176.14 28.4691 176.327C28.4277 176.513 28.3863 176.642 28.3449 176.715H20.1598L20.02 175.317ZM40.8166 177.336C39.6052 177.336 38.549 177.191 37.6482 176.901C36.7474 176.622 35.976 176.223 35.334 175.705C34.6921 175.177 34.164 174.556 33.7498 173.842C33.346 173.117 33.025 172.319 32.7869 171.45C32.5487 170.57 32.3831 169.638 32.2899 168.654C32.207 167.66 32.1656 166.635 32.1656 165.579V165.548C32.1656 164.461 32.2381 163.415 32.3831 162.41C32.528 161.396 32.7558 160.453 33.0664 159.584C33.3874 158.714 33.8016 157.922 34.309 157.207C34.8163 156.493 35.4272 155.882 36.1417 155.375C36.8561 154.867 37.6845 154.474 38.6267 154.194C39.5793 153.915 40.6561 153.775 41.8572 153.775H42.9444C44.1663 153.775 45.2224 153.915 46.1129 154.194C47.0033 154.463 47.7592 154.852 48.3805 155.359C49.0121 155.856 49.5194 156.457 49.9025 157.161C50.2856 157.865 50.5859 158.652 50.8034 159.522C51.0208 160.381 51.1658 161.313 51.2382 162.317C51.3107 163.311 51.347 164.352 51.347 165.439V165.641C51.347 167.277 51.1761 168.804 50.8344 170.223C50.4927 171.641 49.9439 172.879 49.1881 173.935C48.4426 174.991 47.4693 175.824 46.2682 176.435C45.0774 177.036 43.6278 177.336 41.9194 177.336H40.8166ZM41.6864 175.426C43.1049 175.426 44.2491 175.177 45.1188 174.68C45.999 174.183 46.6772 173.495 47.1535 172.615C47.6401 171.734 47.9663 170.694 48.1319 169.493C48.2976 168.281 48.3805 166.966 48.3805 165.548C48.3805 164.699 48.3597 163.865 48.3183 163.047C48.2769 162.229 48.1785 161.458 48.0232 160.733C47.8783 159.998 47.6608 159.325 47.3709 158.714C47.0913 158.103 46.7082 157.58 46.2216 157.145C45.7349 156.7 45.1292 156.353 44.4044 156.105C43.6796 155.856 42.8047 155.732 41.7796 155.732C40.8373 155.732 40.0194 155.846 39.3256 156.074C38.6319 156.291 38.0365 156.607 37.5395 157.021C37.0529 157.435 36.6542 157.937 36.3436 158.528C36.0433 159.118 35.8052 159.775 35.6291 160.5C35.4531 161.225 35.3289 162.012 35.2564 162.861C35.1943 163.71 35.1632 164.605 35.1632 165.548C35.1632 166.355 35.1839 167.158 35.2253 167.955C35.2771 168.752 35.3755 169.519 35.5204 170.254C35.6757 170.979 35.8983 171.657 36.1883 172.288C36.4782 172.92 36.8613 173.469 37.3376 173.935C37.8242 174.401 38.4196 174.768 39.1237 175.037C39.8382 175.296 40.6924 175.426 41.6864 175.426ZM55.0279 175.317C55.4317 175.172 55.8563 175.069 56.3015 175.006C56.7571 174.934 57.1971 174.872 57.6217 174.82V156.089L55.0279 155.608C55.0072 155.556 54.9968 155.473 54.9968 155.359C54.9968 155.235 54.9968 155.136 54.9968 155.064C54.9968 154.909 55.0176 154.748 55.059 154.583C55.1004 154.417 55.1366 154.298 55.1677 154.225H61.0075L62.1258 156.151H62.1413L71.0719 171.683L72.3299 174.758L72.097 171.325V156.089L69.379 155.608C69.3583 155.556 69.3479 155.473 69.3479 155.359C69.3479 155.235 69.3479 155.136 69.3479 155.064C69.3479 154.909 69.3686 154.748 69.41 154.583C69.4514 154.417 69.4929 154.298 69.5343 154.225H76.6787L76.8185 155.561C76.4147 155.675 76.0316 155.778 75.6692 155.872C75.3068 155.965 74.9082 156.037 74.4733 156.089V176.715C74.2558 176.798 73.9918 176.865 73.6812 176.917C73.3809 176.979 73.0703 177.025 72.7493 177.057C72.4387 177.088 72.1332 177.103 71.8329 177.103C71.5327 177.103 71.279 177.082 71.0719 177.041V176.994L60.8988 159.351L59.8737 156.788L60.0135 159.459V174.82L63.0577 175.317C63.0784 175.369 63.0887 175.452 63.0887 175.566C63.0991 175.669 63.1043 175.757 63.1043 175.83C63.1043 175.975 63.0784 176.14 63.0266 176.327C62.9852 176.513 62.9489 176.642 62.9179 176.715H55.1677L55.0279 175.317ZM79.1017 175.177C79.1948 175.146 79.3294 175.12 79.5055 175.1C79.6918 175.069 79.8886 175.043 80.0957 175.022C80.3027 174.991 80.5047 174.965 80.7014 174.944C80.8981 174.924 81.0638 174.903 81.1984 174.882L82.8137 156.12H82.6273C82.2028 156.068 81.7886 156.011 81.3848 155.949C80.981 155.887 80.5668 155.815 80.1423 155.732C80.1112 155.494 80.106 155.245 80.1267 154.986C80.1578 154.717 80.2096 154.463 80.282 154.225H86.8829L93.1265 173.531L93.6391 171.496L98.8111 154.256L104.946 154.225L105.024 155.763C104.599 155.856 104.221 155.929 103.89 155.98C103.569 156.022 103.196 156.068 102.772 156.12L105.272 174.929L107.478 175.208C107.509 175.436 107.514 175.69 107.493 175.969C107.483 176.239 107.452 176.487 107.4 176.715L99.7585 176.746L99.6963 175.239L102.414 174.96L100.395 159.584L100.1 156.229L99.4012 159.615L94.0895 176.606C93.6028 176.73 93.1628 176.798 92.7693 176.808C92.3862 176.818 91.9513 176.787 91.4647 176.715L85.6715 159.211L84.8638 156.198L84.724 159.304L83.4349 174.882C83.9112 174.924 84.3668 174.965 84.8017 175.006C85.2469 175.048 85.6093 175.105 85.8889 175.177C85.9303 175.457 85.9355 175.721 85.9044 175.969C85.8837 176.207 85.8578 176.456 85.8268 176.715H79.1638L79.1017 175.177ZM108.596 175.317C108.668 175.286 108.767 175.25 108.891 175.208C109.026 175.167 109.165 175.131 109.31 175.1C109.466 175.058 109.621 175.022 109.776 174.991C109.932 174.949 110.071 174.913 110.196 174.882L117.247 154.225C117.506 154.184 117.78 154.158 118.07 154.148C118.37 154.127 118.66 154.117 118.94 154.117C119.23 154.117 119.509 154.127 119.779 154.148C120.048 154.168 120.291 154.194 120.508 154.225L127.777 174.96L129.408 175.317L129.253 176.715H121.984L121.844 175.317C122.051 175.265 122.284 175.213 122.543 175.162C122.802 175.11 123.066 175.063 123.335 175.022C123.615 174.98 123.884 174.944 124.143 174.913C124.402 174.882 124.635 174.851 124.842 174.82L122.854 169.011H114.451L112.51 174.82H112.587L115.74 175.317L115.601 176.715H108.767L108.596 175.317ZM122.279 167.21L118.862 157.347L118.583 156.369L118.194 158.046L115.088 167.21H122.279ZM140.839 177.336C139.628 177.336 138.572 177.191 137.671 176.901C136.77 176.622 135.999 176.223 135.357 175.705C134.715 175.177 134.187 174.556 133.772 173.842C133.369 173.117 133.048 172.319 132.809 171.45C132.571 170.57 132.406 169.638 132.312 168.654C132.23 167.66 132.188 166.635 132.188 165.579V165.548C132.188 164.461 132.261 163.415 132.406 162.41C132.551 161.396 132.778 160.453 133.089 159.584C133.41 158.714 133.824 157.922 134.331 157.207C134.839 156.493 135.45 155.882 136.164 155.375C136.879 154.867 137.707 154.474 138.649 154.194C139.602 153.915 140.679 153.775 141.88 153.775H142.967C144.189 153.775 145.245 153.915 146.135 154.194C147.026 154.463 147.782 154.852 148.403 155.359C149.035 155.856 149.542 156.457 149.925 157.161C150.308 157.865 150.608 158.652 150.826 159.522C151.043 160.381 151.188 161.313 151.261 162.317C151.333 163.311 151.369 164.352 151.369 165.439V165.641C151.369 167.163 151.219 168.597 150.919 169.943C150.629 171.279 150.158 172.464 149.506 173.5C148.853 174.535 148.009 175.384 146.974 176.047C145.949 176.699 144.706 177.103 143.247 177.258C143.754 178.211 144.215 178.957 144.629 179.495C145.043 180.044 145.457 180.453 145.871 180.722C146.285 181.002 146.72 181.172 147.176 181.234C147.632 181.307 148.154 181.343 148.745 181.343C149.273 181.343 149.749 181.323 150.174 181.281C150.598 181.24 150.914 181.198 151.121 181.157L151.525 182.663C151.297 182.798 151.012 182.927 150.671 183.052C150.339 183.176 149.982 183.285 149.599 183.378C149.226 183.471 148.843 183.544 148.45 183.595C148.066 183.657 147.709 183.688 147.378 183.688C146.632 183.688 145.985 183.595 145.436 183.409C144.888 183.223 144.411 182.969 144.008 182.648C143.604 182.327 143.257 181.954 142.967 181.53C142.687 181.105 142.439 180.655 142.221 180.178C142.004 179.712 141.807 179.236 141.631 178.749C141.466 178.263 141.3 177.792 141.134 177.336H140.839ZM141.709 175.426C143.127 175.426 144.272 175.177 145.141 174.68C146.021 174.183 146.7 173.495 147.176 172.615C147.663 171.734 147.989 170.694 148.154 169.493C148.32 168.281 148.403 166.966 148.403 165.548C148.403 164.699 148.382 163.865 148.341 163.047C148.299 162.229 148.201 161.458 148.046 160.733C147.901 159.998 147.683 159.325 147.393 158.714C147.114 158.103 146.731 157.58 146.244 157.145C145.757 156.7 145.152 156.353 144.427 156.105C143.702 155.856 142.827 155.732 141.802 155.732C140.86 155.732 140.042 155.846 139.348 156.074C138.654 156.291 138.059 156.607 137.562 157.021C137.075 157.435 136.677 157.937 136.366 158.528C136.066 159.118 135.828 159.775 135.652 160.5C135.476 161.225 135.351 162.012 135.279 162.861C135.217 163.71 135.186 164.605 135.186 165.548C135.186 166.355 135.206 167.158 135.248 167.955C135.3 168.752 135.398 169.519 135.543 170.254C135.698 170.979 135.921 171.657 136.211 172.288C136.501 172.92 136.884 173.469 137.36 173.935C137.847 174.401 138.442 174.768 139.146 175.037C139.861 175.296 140.715 175.426 141.709 175.426ZM162.738 175.208C163.163 175.125 163.593 175.063 164.028 175.022C164.473 174.98 164.908 174.934 165.332 174.882V156.011C164.908 155.96 164.494 155.903 164.09 155.841C163.686 155.778 163.267 155.701 162.832 155.608C162.811 155.369 162.816 155.142 162.847 154.924C162.889 154.696 162.946 154.463 163.018 154.225H172.29C173.543 154.225 174.646 154.339 175.599 154.567C176.551 154.784 177.343 155.157 177.975 155.685C178.617 156.213 179.098 156.917 179.419 157.798C179.751 158.678 179.916 159.775 179.916 161.09C179.916 162.405 179.782 163.555 179.512 164.538C179.254 165.522 178.819 166.34 178.208 166.992C177.597 167.644 176.779 168.131 175.754 168.452C174.739 168.773 173.481 168.934 171.98 168.934C171.358 168.934 170.748 168.903 170.147 168.84C169.557 168.768 168.884 168.675 168.128 168.561V174.882C168.335 174.913 168.599 174.944 168.92 174.975C169.251 175.006 169.593 175.037 169.945 175.069C170.297 175.1 170.634 175.136 170.955 175.177C171.286 175.208 171.555 175.245 171.762 175.286C171.845 175.762 171.845 176.239 171.762 176.715H162.832L162.738 175.208ZM170.582 167.054C171.928 167.137 173.015 167.054 173.843 166.806C174.682 166.547 175.334 166.148 175.8 165.61C176.266 165.061 176.577 164.383 176.732 163.575C176.898 162.757 176.981 161.825 176.981 160.78C176.981 159.972 176.908 159.268 176.763 158.667C176.629 158.056 176.323 157.549 175.847 157.145C175.381 156.741 174.693 156.446 173.781 156.26C172.881 156.063 171.669 155.98 170.147 156.011L168.128 156.042V166.915L170.582 167.054ZM182.665 175.317C183.069 175.172 183.525 175.069 184.032 175.006C184.55 174.934 185.026 174.872 185.461 174.82V156.089L182.914 155.608C182.893 155.556 182.878 155.463 182.867 155.328C182.867 155.183 182.867 155.069 182.867 154.986C182.867 154.841 182.888 154.696 182.929 154.551C182.971 154.407 183.012 154.298 183.054 154.225H190.773L190.928 155.53C190.555 155.665 190.12 155.778 189.623 155.872C189.126 155.965 188.666 156.037 188.241 156.089V174.82L191.13 175.348C191.151 175.4 191.161 175.478 191.161 175.581C191.171 175.674 191.177 175.757 191.177 175.83C191.177 175.975 191.156 176.14 191.114 176.327C191.073 176.513 191.032 176.642 190.99 176.715H182.805L182.665 175.317ZM194.034 175.317C194.438 175.172 194.863 175.069 195.308 175.006C195.764 174.934 196.204 174.872 196.628 174.82V156.089L194.034 155.608C194.014 155.556 194.003 155.473 194.003 155.359C194.003 155.235 194.003 155.136 194.003 155.064C194.003 154.909 194.024 154.748 194.065 154.583C194.107 154.417 194.143 154.298 194.174 154.225H200.014L201.132 156.151H201.148L210.078 171.683L211.336 174.758L211.103 171.325V156.089L208.385 155.608C208.365 155.556 208.354 155.473 208.354 155.359C208.354 155.235 208.354 155.136 208.354 155.064C208.354 154.909 208.375 154.748 208.416 154.583C208.458 154.417 208.499 154.298 208.541 154.225H215.685L215.825 155.561C215.421 155.675 215.038 155.778 214.676 155.872C214.313 155.965 213.915 156.037 213.48 156.089V176.715C213.262 176.798 212.998 176.865 212.688 176.917C212.387 176.979 212.077 177.025 211.756 177.057C211.445 177.088 211.14 177.103 210.839 177.103C210.539 177.103 210.285 177.082 210.078 177.041V176.994L199.905 159.351L198.88 156.788L199.02 159.459V174.82L202.064 175.317C202.085 175.369 202.095 175.452 202.095 175.566C202.106 175.669 202.111 175.757 202.111 175.83C202.111 175.975 202.085 176.14 202.033 176.327C201.992 176.513 201.955 176.642 201.924 176.715H194.174L194.034 175.317ZM222.41 175.317C222.607 175.245 222.84 175.188 223.109 175.146C223.378 175.094 223.653 175.048 223.932 175.006C224.212 174.965 224.486 174.934 224.756 174.913C225.035 174.882 225.278 174.851 225.486 174.82V155.903H220.174L219.879 159.646C219.578 159.687 219.268 159.708 218.947 159.708C218.626 159.698 218.346 159.666 218.108 159.615C218.077 159.325 218.041 158.968 217.999 158.543C217.958 158.108 217.922 157.658 217.891 157.192C217.86 156.716 217.834 156.244 217.813 155.778C217.792 155.302 217.782 154.867 217.782 154.474L218.108 154.225H235.659L236 154.474C236 154.867 235.99 155.302 235.969 155.778C235.949 156.244 235.917 156.716 235.876 157.192C235.845 157.658 235.809 158.108 235.767 158.543C235.726 158.968 235.69 159.325 235.659 159.615C235.42 159.666 235.141 159.698 234.82 159.708C234.509 159.708 234.204 159.687 233.904 159.646L233.593 155.903H228.266V174.758L231.698 175.348C231.719 175.4 231.729 175.478 231.729 175.581C231.729 175.674 231.729 175.757 231.729 175.83C231.729 175.975 231.708 176.14 231.667 176.327C231.626 176.513 231.584 176.642 231.543 176.715H222.55L222.41 175.317ZM239.852 156.089L237.274 155.608C237.253 155.556 237.238 155.473 237.227 155.359C237.227 155.235 237.227 155.136 237.227 155.064C237.227 154.909 237.248 154.748 237.289 154.583C237.331 154.417 237.372 154.298 237.414 154.225H245.428L245.568 155.53C245.381 155.602 245.164 155.67 244.915 155.732C244.667 155.784 244.408 155.835 244.139 155.887C243.88 155.929 243.626 155.97 243.378 156.011C243.14 156.042 242.927 156.068 242.741 156.089V167.287C242.741 168.064 242.756 168.799 242.788 169.493C242.829 170.176 242.912 170.813 243.036 171.403C243.171 171.983 243.373 172.511 243.642 172.987C243.911 173.453 244.273 173.852 244.729 174.183C245.195 174.515 245.77 174.768 246.453 174.944C247.147 175.12 247.985 175.208 248.969 175.208C249.828 175.208 250.558 175.115 251.159 174.929C251.77 174.742 252.277 174.489 252.681 174.168C253.095 173.836 253.421 173.453 253.66 173.018C253.898 172.573 254.079 172.102 254.203 171.605C254.327 171.098 254.405 170.57 254.436 170.021C254.478 169.472 254.498 168.923 254.498 168.374V156.089L251.842 155.608C251.822 155.556 251.806 155.473 251.796 155.359C251.796 155.235 251.796 155.136 251.796 155.064C251.796 154.909 251.816 154.748 251.858 154.583C251.899 154.417 251.941 154.298 251.982 154.225H259.189L259.329 155.561C259.173 155.623 258.992 155.685 258.785 155.747C258.578 155.799 258.366 155.846 258.148 155.887C257.931 155.929 257.718 155.965 257.511 155.996C257.304 156.027 257.118 156.053 256.952 156.074V168.374C256.952 169.648 256.823 170.823 256.564 171.9C256.305 172.967 255.839 173.888 255.166 174.665C254.503 175.441 253.597 176.047 252.448 176.482C251.309 176.917 249.86 177.134 248.099 177.134C246.898 177.134 245.858 177.025 244.977 176.808C244.097 176.601 243.352 176.301 242.741 175.907C242.13 175.514 241.633 175.037 241.25 174.478C240.877 173.919 240.587 173.298 240.38 172.615C240.173 171.931 240.033 171.191 239.961 170.394C239.888 169.586 239.852 168.742 239.852 167.862V156.089ZM261.612 175.348C262.005 175.203 262.43 175.1 262.885 175.037C263.341 174.965 263.781 174.903 264.205 174.851V156.011C263.781 155.96 263.367 155.903 262.963 155.841C262.559 155.778 262.14 155.701 261.705 155.608C261.684 155.369 261.689 155.142 261.72 154.924C261.762 154.696 261.819 154.463 261.891 154.225H270.604C271.95 154.225 273.1 154.324 274.052 154.52C275.005 154.717 275.781 155.054 276.382 155.53C276.993 156.006 277.438 156.648 277.718 157.456C277.997 158.253 278.137 159.252 278.137 160.453C278.137 161.199 278.059 161.96 277.904 162.737C277.749 163.503 277.48 164.217 277.096 164.88C276.724 165.543 276.222 166.128 275.59 166.635C274.958 167.132 274.171 167.479 273.229 167.676L277.935 174.882L280.28 175.286C280.291 175.296 280.296 175.353 280.296 175.457C280.296 175.56 280.286 175.685 280.265 175.83C280.255 175.975 280.234 176.13 280.203 176.295C280.172 176.451 280.135 176.591 280.094 176.715H275.621L270.604 168.064H270.014C269.704 168.064 269.439 168.064 269.222 168.064C269.015 168.064 268.808 168.059 268.601 168.048C268.394 168.038 268.166 168.028 267.917 168.017C267.679 168.007 267.374 167.986 267.001 167.955V174.851L269.486 175.348C269.507 175.4 269.517 175.483 269.517 175.597C269.528 175.71 269.533 175.804 269.533 175.876C269.533 176.021 269.512 176.182 269.471 176.358C269.429 176.523 269.388 176.642 269.346 176.715H261.751L261.612 175.348ZM269.455 166.324C270.542 166.324 271.453 166.205 272.189 165.967C272.924 165.719 273.514 165.351 273.959 164.864C274.415 164.367 274.741 163.746 274.938 163.001C275.134 162.245 275.233 161.359 275.233 160.345C275.233 159.661 275.155 159.045 275 158.496C274.844 157.948 274.575 157.482 274.192 157.099C273.809 156.716 273.286 156.426 272.623 156.229C271.971 156.032 271.148 155.949 270.154 155.98L267.001 156.042V166.324H269.455ZM281.523 175.317C281.595 175.286 281.694 175.25 281.818 175.208C281.953 175.167 282.092 175.131 282.237 175.1C282.393 175.058 282.548 175.022 282.703 174.991C282.859 174.949 282.998 174.913 283.123 174.882L290.174 154.225C290.433 154.184 290.707 154.158 290.997 154.148C291.297 154.127 291.587 154.117 291.867 154.117C292.157 154.117 292.436 154.127 292.706 154.148C292.975 154.168 293.218 154.194 293.436 154.225L300.704 174.96L302.335 175.317L302.18 176.715H294.911L294.771 175.317C294.978 175.265 295.211 175.213 295.47 175.162C295.729 175.11 295.993 175.063 296.262 175.022C296.542 174.98 296.811 174.944 297.07 174.913C297.329 174.882 297.562 174.851 297.769 174.82L295.781 169.011H287.378L285.437 174.82H285.515L288.667 175.317L288.528 176.715H281.694L281.523 175.317ZM295.206 167.21L291.789 157.347L291.51 156.369L291.121 158.046L288.015 167.21H295.206ZM305.286 170.269C305.483 170.259 305.654 170.254 305.799 170.254C305.944 170.254 306.078 170.259 306.202 170.269C306.337 170.269 306.472 170.28 306.606 170.3C306.751 170.321 306.927 170.342 307.134 170.362C307.186 170.663 307.228 170.937 307.259 171.186C307.29 171.424 307.321 171.667 307.352 171.916C307.383 172.164 307.414 172.428 307.445 172.708C307.476 172.977 307.517 173.298 307.569 173.671C307.921 173.888 308.284 174.095 308.656 174.292C309.04 174.489 309.438 174.66 309.852 174.804C310.277 174.949 310.722 175.069 311.188 175.162C311.654 175.245 312.161 175.286 312.71 175.286C313.383 175.286 313.968 175.198 314.465 175.022C314.962 174.846 315.371 174.603 315.692 174.292C316.013 173.971 316.251 173.583 316.407 173.127C316.562 172.671 316.64 172.164 316.64 171.605C316.64 171.336 316.629 171.082 316.609 170.844C316.588 170.595 316.541 170.357 316.469 170.13C316.396 169.902 316.293 169.684 316.158 169.477C316.023 169.27 315.842 169.068 315.615 168.871C315.004 168.354 314.362 167.893 313.689 167.489C313.016 167.085 312.327 166.697 311.623 166.324C310.929 165.952 310.23 165.579 309.526 165.206C308.822 164.823 308.134 164.398 307.46 163.932C307.098 163.674 306.772 163.415 306.482 163.156C306.202 162.887 305.959 162.592 305.752 162.271C305.555 161.939 305.405 161.572 305.302 161.168C305.198 160.754 305.146 160.272 305.146 159.723C305.146 158.709 305.291 157.854 305.581 157.161C305.871 156.457 306.275 155.866 306.793 155.39C307.424 154.8 308.154 154.386 308.983 154.148C309.821 153.899 310.795 153.775 311.902 153.775C312.493 153.775 313.098 153.801 313.72 153.853C314.351 153.904 314.962 153.982 315.552 154.086C316.153 154.179 316.717 154.293 317.245 154.427C317.784 154.562 318.265 154.707 318.69 154.862C318.617 155.701 318.529 156.545 318.426 157.394C318.333 158.243 318.213 159.045 318.068 159.801C317.851 159.822 317.665 159.837 317.509 159.848C317.354 159.848 317.209 159.848 317.074 159.848C316.95 159.837 316.816 159.827 316.671 159.817C316.536 159.806 316.376 159.786 316.189 159.755L315.941 156.679C315.257 156.317 314.543 156.042 313.797 155.856C313.052 155.659 312.317 155.561 311.592 155.561C311.022 155.561 310.499 155.628 310.023 155.763C309.557 155.898 309.153 156.105 308.812 156.384C308.47 156.653 308.206 157 308.02 157.425C307.833 157.839 307.74 158.336 307.74 158.916C307.74 159.33 307.792 159.703 307.895 160.034C307.999 160.365 308.154 160.676 308.361 160.966C308.579 161.246 308.853 161.51 309.184 161.758C309.516 162.007 309.909 162.255 310.365 162.504L315.723 165.517C316.624 166.014 317.318 166.506 317.804 166.992C318.301 167.479 318.664 167.965 318.892 168.452C319.13 168.939 319.27 169.431 319.311 169.928C319.363 170.414 319.389 170.916 319.389 171.434C319.389 172.024 319.316 172.563 319.171 173.049C319.037 173.526 318.845 173.961 318.597 174.354C318.348 174.737 318.058 175.079 317.727 175.379C317.395 175.669 317.043 175.918 316.671 176.125C316.236 176.363 315.785 176.549 315.319 176.684C314.864 176.818 314.413 176.917 313.968 176.979C313.523 177.051 313.104 177.093 312.71 177.103C312.317 177.124 311.975 177.134 311.685 177.134C311.084 177.134 310.448 177.072 309.775 176.948C309.102 176.834 308.455 176.684 307.833 176.497C307.212 176.311 306.643 176.109 306.125 175.892C305.607 175.664 305.198 175.446 304.898 175.239L305.286 170.269ZM330.152 175.317C330.556 175.172 331.011 175.069 331.519 175.006C332.036 174.934 332.513 174.872 332.948 174.82V156.089L330.4 155.608C330.38 155.556 330.364 155.463 330.354 155.328C330.354 155.183 330.354 155.069 330.354 154.986C330.354 154.841 330.375 154.696 330.416 154.551C330.457 154.407 330.499 154.298 330.54 154.225H338.259L338.415 155.53C338.042 155.665 337.607 155.778 337.11 155.872C336.613 155.965 336.152 156.037 335.728 156.089V174.82L338.617 175.348C338.637 175.4 338.648 175.478 338.648 175.581C338.658 175.674 338.663 175.757 338.663 175.83C338.663 175.975 338.642 176.14 338.601 176.327C338.56 176.513 338.518 176.642 338.477 176.715H330.292L330.152 175.317ZM341.521 175.317C341.925 175.172 342.349 175.069 342.795 175.006C343.25 174.934 343.69 174.872 344.115 174.82V156.089L341.521 155.608C341.5 155.556 341.49 155.473 341.49 155.359C341.49 155.235 341.49 155.136 341.49 155.064C341.49 154.909 341.511 154.748 341.552 154.583C341.593 154.417 341.63 154.298 341.661 154.225H347.501L348.619 156.151H348.634L357.565 171.683L358.823 174.758L358.59 171.325V156.089L355.872 155.608C355.851 155.556 355.841 155.473 355.841 155.359C355.841 155.235 355.841 155.136 355.841 155.064C355.841 154.909 355.862 154.748 355.903 154.583C355.944 154.417 355.986 154.298 356.027 154.225H363.172L363.312 155.561C362.908 155.675 362.525 155.778 362.162 155.872C361.8 155.965 361.401 156.037 360.966 156.089V176.715C360.749 176.798 360.485 176.865 360.174 176.917C359.874 176.979 359.563 177.025 359.242 177.057C358.932 177.088 358.626 177.103 358.326 177.103C358.026 177.103 357.772 177.082 357.565 177.041V176.994L347.392 159.351L346.367 156.788L346.507 159.459V174.82L349.551 175.317C349.571 175.369 349.582 175.452 349.582 175.566C349.592 175.669 349.597 175.757 349.597 175.83C349.597 175.975 349.571 176.14 349.52 176.327C349.478 176.513 349.442 176.642 349.411 176.715H341.661L341.521 175.317ZM366.263 175.239C366.687 175.157 367.122 175.079 367.567 175.006C368.023 174.934 368.468 174.872 368.903 174.82V156.042C368.468 155.991 368.049 155.939 367.645 155.887C367.241 155.825 366.827 155.742 366.402 155.639C366.351 155.162 366.397 154.691 366.542 154.225H375.426C376.358 154.225 377.254 154.293 378.113 154.427C378.983 154.551 379.79 154.769 380.536 155.08C381.281 155.38 381.96 155.784 382.571 156.291C383.181 156.798 383.699 157.425 384.124 158.17C384.559 158.916 384.895 159.796 385.133 160.811C385.371 161.815 385.49 162.98 385.49 164.305V165.579C385.49 167.608 385.252 169.332 384.776 170.751C384.31 172.159 383.621 173.308 382.71 174.199C381.799 175.079 380.681 175.721 379.356 176.125C378.03 176.518 376.513 176.715 374.805 176.715H366.356L366.263 175.239ZM375.038 174.929H375.814C377.015 174.929 378.041 174.716 378.89 174.292C379.739 173.857 380.427 173.241 380.955 172.444C381.494 171.646 381.887 170.678 382.136 169.539C382.384 168.4 382.508 167.122 382.508 165.703V164.523C382.508 162.918 382.343 161.582 382.011 160.516C381.69 159.449 381.188 158.59 380.505 157.937C379.821 157.285 378.941 156.814 377.865 156.524C376.798 156.234 375.519 156.063 374.028 156.011L371.683 156.042V174.82L375.038 174.929ZM390.942 156.089L388.364 155.608C388.343 155.556 388.328 155.473 388.317 155.359C388.317 155.235 388.317 155.136 388.317 155.064C388.317 154.909 388.338 154.748 388.379 154.583C388.421 154.417 388.462 154.298 388.504 154.225H396.518L396.658 155.53C396.471 155.602 396.254 155.67 396.005 155.732C395.757 155.784 395.498 155.835 395.229 155.887C394.97 155.929 394.716 155.97 394.468 156.011C394.229 156.042 394.017 156.068 393.831 156.089V167.287C393.831 168.064 393.846 168.799 393.877 169.493C393.919 170.176 394.002 170.813 394.126 171.403C394.261 171.983 394.462 172.511 394.732 172.987C395.001 173.453 395.363 173.852 395.819 174.183C396.285 174.515 396.859 174.768 397.543 174.944C398.237 175.12 399.075 175.208 400.059 175.208C400.918 175.208 401.648 175.115 402.249 174.929C402.86 174.742 403.367 174.489 403.771 174.168C404.185 173.836 404.511 173.453 404.749 173.018C404.988 172.573 405.169 172.102 405.293 171.605C405.417 171.098 405.495 170.57 405.526 170.021C405.567 169.472 405.588 168.923 405.588 168.374V156.089L402.932 155.608C402.912 155.556 402.896 155.473 402.886 155.359C402.886 155.235 402.886 155.136 402.886 155.064C402.886 154.909 402.906 154.748 402.948 154.583C402.989 154.417 403.031 154.298 403.072 154.225H410.279L410.418 155.561C410.263 155.623 410.082 155.685 409.875 155.747C409.668 155.799 409.455 155.846 409.238 155.887C409.021 155.929 408.808 155.965 408.601 155.996C408.394 156.027 408.208 156.053 408.042 156.074V168.374C408.042 169.648 407.913 170.823 407.654 171.9C407.395 172.967 406.929 173.888 406.256 174.665C405.593 175.441 404.687 176.047 403.538 176.482C402.399 176.917 400.949 177.134 399.189 177.134C397.988 177.134 396.947 177.025 396.067 176.808C395.187 176.601 394.442 176.301 393.831 175.907C393.22 175.514 392.723 175.037 392.34 174.478C391.967 173.919 391.677 173.298 391.47 172.615C391.263 171.931 391.123 171.191 391.051 170.394C390.978 169.586 390.942 168.742 390.942 167.862V156.089ZM413.571 170.269C413.768 170.259 413.939 170.254 414.084 170.254C414.229 170.254 414.363 170.259 414.488 170.269C414.622 170.269 414.757 170.28 414.891 170.3C415.036 170.321 415.212 170.342 415.42 170.362C415.471 170.663 415.513 170.937 415.544 171.186C415.575 171.424 415.606 171.667 415.637 171.916C415.668 172.164 415.699 172.428 415.73 172.708C415.761 172.977 415.803 173.298 415.854 173.671C416.206 173.888 416.569 174.095 416.942 174.292C417.325 174.489 417.723 174.66 418.138 174.804C418.562 174.949 419.007 175.069 419.473 175.162C419.939 175.245 420.447 175.286 420.995 175.286C421.668 175.286 422.253 175.198 422.75 175.022C423.247 174.846 423.656 174.603 423.977 174.292C424.298 173.971 424.537 173.583 424.692 173.127C424.847 172.671 424.925 172.164 424.925 171.605C424.925 171.336 424.914 171.082 424.894 170.844C424.873 170.595 424.826 170.357 424.754 170.13C424.681 169.902 424.578 169.684 424.443 169.477C424.309 169.27 424.128 169.068 423.9 168.871C423.289 168.354 422.647 167.893 421.974 167.489C421.301 167.085 420.612 166.697 419.908 166.324C419.214 165.952 418.515 165.579 417.811 165.206C417.107 164.823 416.419 164.398 415.746 163.932C415.383 163.674 415.057 163.415 414.767 163.156C414.488 162.887 414.244 162.592 414.037 162.271C413.841 161.939 413.69 161.572 413.587 161.168C413.483 160.754 413.432 160.272 413.432 159.723C413.432 158.709 413.576 157.854 413.866 157.161C414.156 156.457 414.56 155.866 415.078 155.39C415.709 154.8 416.439 154.386 417.268 154.148C418.106 153.899 419.08 153.775 420.188 153.775C420.778 153.775 421.384 153.801 422.005 153.853C422.636 153.904 423.247 153.982 423.838 154.086C424.438 154.179 425.002 154.293 425.531 154.427C426.069 154.562 426.55 154.707 426.975 154.862C426.902 155.701 426.814 156.545 426.711 157.394C426.618 158.243 426.499 159.045 426.354 159.801C426.136 159.822 425.95 159.837 425.795 159.848C425.639 159.848 425.494 159.848 425.36 159.848C425.235 159.837 425.101 159.827 424.956 159.817C424.821 159.806 424.661 159.786 424.474 159.755L424.226 156.679C423.542 156.317 422.828 156.042 422.083 155.856C421.337 155.659 420.602 155.561 419.877 155.561C419.308 155.561 418.785 155.628 418.308 155.763C417.842 155.898 417.439 156.105 417.097 156.384C416.755 156.653 416.491 157 416.305 157.425C416.118 157.839 416.025 158.336 416.025 158.916C416.025 159.33 416.077 159.703 416.181 160.034C416.284 160.365 416.439 160.676 416.647 160.966C416.864 161.246 417.138 161.51 417.47 161.758C417.801 162.007 418.195 162.255 418.65 162.504L424.008 165.517C424.909 166.014 425.603 166.506 426.09 166.992C426.587 167.479 426.949 167.965 427.177 168.452C427.415 168.939 427.555 169.431 427.596 169.928C427.648 170.414 427.674 170.916 427.674 171.434C427.674 172.024 427.601 172.563 427.456 173.049C427.322 173.526 427.13 173.961 426.882 174.354C426.633 174.737 426.343 175.079 426.012 175.379C425.681 175.669 425.329 175.918 424.956 176.125C424.521 176.363 424.071 176.549 423.605 176.684C423.149 176.818 422.699 176.917 422.253 176.979C421.808 177.051 421.389 177.093 420.995 177.103C420.602 177.124 420.26 177.134 419.97 177.134C419.37 177.134 418.733 177.072 418.06 176.948C417.387 176.834 416.74 176.684 416.118 176.497C415.497 176.311 414.928 176.109 414.41 175.892C413.892 175.664 413.483 175.446 413.183 175.239L413.571 170.269ZM434.818 175.317C435.015 175.245 435.248 175.188 435.517 175.146C435.786 175.094 436.061 175.048 436.34 175.006C436.62 174.965 436.894 174.934 437.164 174.913C437.443 174.882 437.686 174.851 437.894 174.82V155.903H432.582L432.287 159.646C431.986 159.687 431.676 159.708 431.355 159.708C431.034 159.698 430.754 159.666 430.516 159.615C430.485 159.325 430.449 158.968 430.407 158.543C430.366 158.108 430.33 157.658 430.299 157.192C430.268 156.716 430.242 156.244 430.221 155.778C430.2 155.302 430.19 154.867 430.19 154.474L430.516 154.225H448.067L448.408 154.474C448.408 154.867 448.398 155.302 448.377 155.778C448.357 156.244 448.326 156.716 448.284 157.192C448.253 157.658 448.217 158.108 448.175 158.543C448.134 158.968 448.098 159.325 448.067 159.615C447.829 159.666 447.549 159.698 447.228 159.708C446.917 159.708 446.612 159.687 446.312 159.646L446.001 155.903H440.674V174.758L444.106 175.348C444.127 175.4 444.137 175.478 444.137 175.581C444.137 175.674 444.137 175.757 444.137 175.83C444.137 175.975 444.116 176.14 444.075 176.327C444.034 176.513 443.992 176.642 443.951 176.715H434.958L434.818 175.317ZM450.381 175.348C450.774 175.203 451.199 175.1 451.654 175.037C452.11 174.965 452.55 174.903 452.975 174.851V156.011C452.55 155.96 452.136 155.903 451.732 155.841C451.328 155.778 450.909 155.701 450.474 155.608C450.453 155.369 450.458 155.142 450.49 154.924C450.531 154.696 450.588 154.463 450.66 154.225H459.374C460.72 154.225 461.869 154.324 462.822 154.52C463.774 154.717 464.551 155.054 465.151 155.53C465.762 156.006 466.207 156.648 466.487 157.456C466.767 158.253 466.906 159.252 466.906 160.453C466.906 161.199 466.829 161.96 466.673 162.737C466.518 163.503 466.249 164.217 465.866 164.88C465.493 165.543 464.991 166.128 464.359 166.635C463.728 167.132 462.941 167.479 461.998 167.676L466.704 174.882L469.05 175.286C469.06 175.296 469.065 175.353 469.065 175.457C469.065 175.56 469.055 175.685 469.034 175.83C469.024 175.975 469.003 176.13 468.972 176.295C468.941 176.451 468.905 176.591 468.863 176.715H464.39L459.374 168.064H458.783C458.473 168.064 458.209 168.064 457.991 168.064C457.784 168.064 457.577 168.059 457.37 168.048C457.163 168.038 456.935 168.028 456.687 168.017C456.448 168.007 456.143 167.986 455.77 167.955V174.851L458.255 175.348C458.276 175.4 458.286 175.483 458.286 175.597C458.297 175.71 458.302 175.804 458.302 175.876C458.302 176.021 458.281 176.182 458.24 176.358C458.198 176.523 458.157 176.642 458.115 176.715H450.521L450.381 175.348ZM458.224 166.324C459.311 166.324 460.223 166.205 460.958 165.967C461.693 165.719 462.283 165.351 462.728 164.864C463.184 164.367 463.51 163.746 463.707 163.001C463.904 162.245 464.002 161.359 464.002 160.345C464.002 159.661 463.924 159.045 463.769 158.496C463.614 157.948 463.344 157.482 462.961 157.099C462.578 156.716 462.055 156.426 461.393 156.229C460.74 156.032 459.917 155.949 458.923 155.98L455.77 156.042V166.324H458.224ZM471.209 175.317C471.612 175.172 472.068 175.069 472.575 175.006C473.093 174.934 473.569 174.872 474.004 174.82V156.089L471.457 155.608C471.436 155.556 471.421 155.463 471.41 155.328C471.41 155.183 471.41 155.069 471.41 154.986C471.41 154.841 471.431 154.696 471.473 154.551C471.514 154.407 471.555 154.298 471.597 154.225H479.316L479.471 155.53C479.098 155.665 478.664 155.778 478.167 155.872C477.67 155.965 477.209 156.037 476.784 156.089V174.82L479.673 175.348C479.694 175.4 479.704 175.478 479.704 175.581C479.715 175.674 479.72 175.757 479.72 175.83C479.72 175.975 479.699 176.14 479.658 176.327C479.616 176.513 479.575 176.642 479.533 176.715H471.348L471.209 175.317ZM481.63 175.317C481.703 175.286 481.801 175.25 481.925 175.208C482.06 175.167 482.2 175.131 482.345 175.1C482.5 175.058 482.655 175.022 482.811 174.991C482.966 174.949 483.106 174.913 483.23 174.882L490.281 154.225C490.54 154.184 490.814 154.158 491.104 154.148C491.405 154.127 491.694 154.117 491.974 154.117C492.264 154.117 492.544 154.127 492.813 154.148C493.082 154.168 493.325 154.194 493.543 154.225L500.811 174.96L502.442 175.317L502.287 176.715H495.018L494.878 175.317C495.086 175.265 495.318 175.213 495.577 175.162C495.836 175.11 496.1 175.063 496.369 175.022C496.649 174.98 496.918 174.944 497.177 174.913C497.436 174.882 497.669 174.851 497.876 174.82L495.888 169.011H487.485L485.544 174.82H485.622L488.775 175.317L488.635 176.715H481.801L481.63 175.317ZM495.313 167.21L491.896 157.347L491.617 156.369L491.229 158.046L488.122 167.21H495.313ZM504.523 175.317C504.917 175.172 505.341 175.074 505.797 175.022C506.253 174.96 506.693 174.903 507.117 174.851V156.089L504.586 155.608C504.565 155.473 504.56 155.359 504.57 155.266C504.58 155.162 504.586 155.069 504.586 154.986C504.606 154.81 504.627 154.66 504.648 154.536C504.668 154.401 504.694 154.298 504.725 154.225H512.848L512.988 155.53C512.812 155.592 512.589 155.649 512.32 155.701C512.061 155.753 511.787 155.804 511.497 155.856C511.217 155.908 510.933 155.954 510.643 155.996C510.363 156.027 510.12 156.058 509.913 156.089V174.851H517.803L518.906 171.139C519.206 171.118 519.506 171.118 519.806 171.139C520.117 171.16 520.391 171.206 520.63 171.279C520.619 171.641 520.598 172.061 520.567 172.537C520.547 173.003 520.516 173.479 520.474 173.966C520.433 174.442 520.391 174.903 520.35 175.348C520.309 175.783 520.272 176.156 520.241 176.466L519.9 176.715H504.663L504.523 175.317Z"
        fill="#BFA976" />
</svg>